<svg xmlns="http://www.w3.org/2000/svg" width="155.208" height="34.514" viewBox="0 0 155.208 34.514"><defs><style>.a{fill:#0064b3;}.b{fill:#0084b1;}.c{fill:#adbf00;}.d{fill:#91b508;}.e{fill:#004c9b;}.f{fill:#569421;}</style></defs><ellipse class="a" cx="3.527" cy="3.527" rx="3.527" ry="3.527" transform="translate(23.077 0)"/><ellipse class="a" cx="1.963" cy="1.963" rx="1.963" ry="1.963" transform="translate(27.185 8.61)"/><ellipse class="b" cx="1.289" cy="1.289" rx="1.289" ry="1.289" transform="translate(23.655 10.786)"/><ellipse class="b" cx="1.289" cy="1.289" rx="1.289" ry="1.289" transform="translate(27.022 15.99)"/><ellipse class="b" cx="1.289" cy="1.289" rx="1.289" ry="1.289" transform="translate(23.655 21.244)"/><ellipse class="c" cx="1.289" cy="1.289" rx="1.289" ry="1.289" transform="translate(0 15.99)"/><ellipse class="c" cx="1.289" cy="1.289" rx="1.289" ry="1.289" transform="translate(4.974 11.334)"/><ellipse class="c" cx="1.289" cy="1.289" rx="1.289" ry="1.289" transform="translate(4.974 20.684)"/><ellipse class="a" cx="1.963" cy="1.963" rx="1.963" ry="1.963" transform="translate(30.78 15.316)"/><ellipse class="a" cx="1.963" cy="1.963" rx="1.963" ry="1.963" transform="translate(27.185 22.061)"/><ellipse class="d" cx="1.963" cy="1.963" rx="1.963" ry="1.963" transform="translate(9.045 22.061)"/><ellipse class="d" cx="1.963" cy="1.963" rx="1.963" ry="1.963" transform="translate(4.3 15.316)"/><ellipse class="d" cx="1.963" cy="1.963" rx="1.963" ry="1.963" transform="translate(9.045 8.61)"/><ellipse class="e" cx="3.527" cy="3.527" rx="3.527" ry="3.527" transform="translate(32.288 4.364)"/><ellipse class="e" cx="3.527" cy="3.527" rx="3.527" ry="3.527" transform="translate(36.432 13.752)"/><ellipse class="e" cx="3.527" cy="3.527" rx="3.527" ry="3.527" transform="translate(32.288 23.096)"/><ellipse class="a" cx="3.527" cy="3.527" rx="3.527" ry="3.527" transform="translate(23.077 27.46)"/><ellipse class="f" cx="3.527" cy="3.527" rx="3.527" ry="3.527" transform="translate(14.11 23.096)"/><ellipse class="f" cx="3.527" cy="3.527" rx="3.527" ry="3.527" transform="translate(9.967 13.752)"/><ellipse class="f" cx="3.527" cy="3.527" rx="3.527" ry="3.527" transform="translate(14.11 4.364)"/><path class="e" d="M240.65,279.34h-5.175l-9.008,19.791h4.214l1.762-4.189h6.94l.655,4.238h4.369Zm-6.914,12.372,3.625-8.448,1.45,8.448Z" transform="translate(-180.216 -273.145)"/><path class="e" d="M271.009,298.553H266.9l2.559-20.444h4.114Z" transform="translate(-200.808 -272.518)"/><path class="e" d="M286.074,298.553H281.96l2.559-20.444h4.114Z" transform="translate(-208.481 -272.518)"/><path class="e" d="M310.923,293.247s.355-4.254-5.248-4.24c-4.658,0-8.09,3.512-8.09,8.48-.005,3.787,1.471,6.888,6.437,6.888a8.332,8.332,0,0,0,6.089-2.273l-1.38-2.381a6.7,6.7,0,0,1-4.129,1.629,2.775,2.775,0,0,1-2.959-2.657C307.342,298.37,310.923,296.842,310.923,293.247Zm-9.117,2.632c-.019-1.3,1.211-4.112,3.5-4.112a1.649,1.649,0,0,1,1.8,1.619C307.091,295.11,304.879,295.714,301.806,295.879Z" transform="translate(-216.44 -278.068)"/><path class="e" d="M327.352,304.057l1.881-14.77h3.894v2.2c1.481-2.447,3.314-3.067,5.431-2.2l-.98,3.841c-2.6-.916-4.665,1.483-4.875,2.7l-1.192,8.224Z" transform="translate(-231.601 -278.022)"/><path class="e" d="M399.945,289.261h-3.861l-.5,1.814h0a4.744,4.744,0,0,0-3.906-2.211c-4.251,0-7.133,4.361-7.133,8.461,0,4.809,1.733,6.987,5.291,6.977a5.885,5.885,0,0,0,4.336-2.206v1.935h3.868ZM391.4,301.015c-1.78.006-2.646-1.244-2.646-4.007,0-1.718,1.442-4.859,3.567-4.859,1.661,0,2.619,1.021,2.593,4.433C394.691,298.189,393.653,301.015,391.4,301.015Z" transform="translate(-260.734 -277.996)"/><path class="e" d="M364.505,289.261h-3.861l-.5,1.814h0a4.743,4.743,0,0,0-3.906-2.211c-4.25,0-7.132,4.361-7.132,8.461,0,4.809,3.095,6.14,5.174,6.14,2.662,0,3.42-.981,4.564-2.259,0,5.373-4.475,6.34-8.67,3.5l-1.673,2.719a9.758,9.758,0,0,0,6.208,2c4.858,0,7.524-2.845,7.892-5.4Zm-8.458,10.905c-1.78,0-2.662-1.167-2.662-3.167,0-1.718,1.093-4.835,3.5-4.851,1.712-.011,3.125,1.164,2.592,4.433C359.252,298.189,357.978,300.166,356.048,300.166Zm26.893,3.864,1.912-14.788h3.869l-.023,2.086a5.606,5.606,0,0,1,4.814-2.443,3.764,3.764,0,0,1,4.049,4.333l-1.237,10.812H392.12l1.215-9.507c.337-3.4-4.635-2-5.04.562l-1.215,8.945Z" transform="translate(-242.376 -277.996)"/></svg>