<svg xmlns="http://www.w3.org/2000/svg" width="151.954" height="25.375" viewBox="0 0 151.954 25.375"><g transform="translate(-11.766 -85.296)"><path d="M100.44,108.893a22.447,22.447,0,0,0,1.72,2.846H91.035c-.383-2.074-1.445-3.383-2.3-4.906l-4.791,3.232a10.832,10.832,0,0,0-2.006,1.674h-6.35c1.337-.882,2.982-2.093,4.625-3.272l6.781-4.871-3.511-6.5a31.826,31.826,0,0,0-2.53-4.108H92.273c.032,1.534,1.615,3.656,2.357,5.026,1.632-1.142,5.288-3.838,6.672-5.026l5.931.077a39.807,39.807,0,0,0-3.868,2.853l-7.06,5.294,4.135,7.685" transform="translate(-8.863 -1.067)" fill="#003783" fill-rule="evenodd"/><path d="M127.188,106.106l-.82,3.576h-8.24c-4.53,0-9.006-1.223-7.649-6.359l.287-1.135,3.995-15.142,9.269-.381-1.115,4.225h7.761l-.942,3.576h-7.762l-2.3,8.711c-.612,2.319-.506,2.929,1.966,2.929h5.548" transform="translate(-13.673 0.81)" fill="#003783" fill-rule="evenodd"/><path d="M174.806,95.065c1.1-1.971,2.48-2.082,5.029-2.082h4.6L182.8,98.8a2.951,2.951,0,0,0-2.321-.72h-3.095a3.779,3.779,0,0,0-3.862,2.816l-1.615,6.125a16.112,16.112,0,0,0-.715,4.717H160.966a16.542,16.542,0,0,0,1.663-4.3l.111-.419L165.2,97.7a21.484,21.484,0,0,0,.652-3.042,3.559,3.559,0,0,0-.168-1.674h9.094l.03,2.082" transform="translate(-20.718 -1.067)" fill="#003783" fill-rule="evenodd"/><path d="M142.422,103.244l-.642,2.483c-.582,2.207.146,2.473,2.161,2.473h8.332a22.117,22.117,0,0,0,3.956-.145l-1.541,3.683h-16.7c-4.565,0-6.552-1.408-5.247-6.354l2.056-7.817c.918-3.935,2.378-4.55,5.762-4.585H153.93c4.6,0,6.335,1.37,5.04,6.278l-1.064,3.984Zm7.674-4.668c.291-1.1.39-2.054-.942-2.054H145.54c-1.1,0-1.5.646-1.814,1.824l-.361,1.629h6.428Z" transform="translate(-16.744 -1.067)" fill="#003783" fill-rule="evenodd"/><path d="M61.371,111.733h8.787a10.271,10.271,0,0,1,.369-3.371L73.17,98.3c.843-3.2-.8-5.326-3.986-5.363l-.923.037H50.756l-1.239,3.308H64.572l-.709,2.471H53.037c-2.7,0-5.272,1.677-5.583,3.146l-.843,3.2c-1.115,4.753,2.266,6.635,5.956,6.635h4.849a6.024,6.024,0,0,0,3.536-1.382A3.8,3.8,0,0,0,61.371,111.733Zm-2.83-9.169c-1.751,0-2.217.146-2.648,1.782l-.49,1.874c-.421,1.6-.06,1.975,1.652,1.975H59.3c1.75,0,2.369-.76,2.8-2.4l.853-3.234Z" transform="translate(-4.809 -1.061)" fill="#003783" fill-rule="evenodd"/><path d="M38.856,97.74c1.622.425,2.1,2.86,1.845,4.373l-.924,3.5c-1.144,4.337-4.2,5.057-7.928,5.057H11.766a13.03,13.03,0,0,0,1.6-3.767l4.707-17.842a8.916,8.916,0,0,0,.313-3.767h20.16c3.275,0,5.839,1.273,4.8,5.211l-.624,2.7C42.027,95.84,40.725,97.3,38.856,97.74ZM31.2,95.681c1.682,0,2.1-.375,2.515-1.933l.608-2.26c.372-1.405-.095-1.962-1.22-2.007H27.587l-1.637,6.2Zm-2.614,10.8c1.56,0,1.859-.3,2.3-1.977l.739-2.858c.294-1.318.023-1.78-1.3-1.783H24.847L23.1,106.485Z" fill="#003783" fill-rule="evenodd"/></g></svg>