<svg xmlns="http://www.w3.org/2000/svg" width="147.813" height="23.752" viewBox="0 0 147.813 23.752"><defs><style>.a{fill:#fff;}.b{fill:none;stroke:#231f20;stroke-width:0.424px;}.c{fill:#231f20;}.d{fill:#ff371f;}.e{fill:#007b77;}</style></defs><g transform="translate(0.21)"><path class="a" d="M45.785,232.848v22.9h-22.9v-22.9Z" transform="translate(-22.887 -232.47)"/><path class="b" d="M45.785,232.848v22.9h-22.9v-22.9Z" transform="translate(-22.887 -232.47)"/><path class="c" d="M45.787,232.756,34.336,248.494,22.887,232.756Z" transform="translate(-22.887 -232.463)"/><path class="d" d="M27.491,256.675V246.288l7.162,10.241,7.162-10.241v10.387Z" transform="translate(-23.205 -233.397)"/><path class="b" d="M27.493,256.672V246.294l7.161,10.233,7.16-10.233v10.378Z" transform="translate(-23.205 -233.397)"/><path class="c" d="M152.9,256.957V256.6h-.1c-.964-.07-1.241-.3-1.241-1v-6.849c0-.72.3-.948,1.241-1h.1v-.353h-4.949v.353h.1c.922.073,1.219.311,1.219,1V255.6c0,.7-.256.9-1.219.991l-.1.012v.357Zm-15.721,0h3.211V256.6l-.115-.012c-.976-.13-1.229-.409-1.229-1.383v-5.663h.028l6.3,7.669h.4v-8.336c0-.778.184-.992,1.019-1.117l.084-.014v-.353h-3.039v.353c1.043.113,1.311.394,1.311,1.4v4.287h-.03l-4.9-6.04h-2.987v.353c.3.014.509.186,1.13.949l.076.072v6.705c0,.791-.232,1-1.151,1.118l-.1.012Zm-.994,0V256.6h-.1c-.961-.07-1.247-.3-1.247-1v-6.849c0-.72.3-.948,1.247-1h.1v-.353h-4.95v.353h.1c.916.073,1.215.311,1.215,1V255.6c0,.7-.256.9-1.215.991l-.1.012v.357Zm-11.619-4.882c.169,0,.3-.013.384-.013a3.027,3.027,0,0,0,1.471-.3c.5-.27.732-.876.732-1.84,0-1.441-.535-2.053-1.836-2.053-.535,0-.75.172-.75.6Zm6.212,4.882h-2.9l-2.928-4.428h-.384V255.3a2.391,2.391,0,0,0,.1.776c.1.3.339.411,1.045.509l.1.012v.357h-4.782V256.6a.838.838,0,0,0,.1-.012c.992-.115,1.145-.285,1.145-1.285v-6.258c0-.991-.21-1.229-1.131-1.288l-.112-.014v-.353h4.556c2.574,0,3.988.876,3.988,2.49a2.094,2.094,0,0,1-.963,1.87,4.03,4.03,0,0,1-1.257.549l2.844,4.033a.644.644,0,0,0,.581.266Zm-17.592-3.34h2.76l-1.43-3.436Zm7.074,3.34H115.68V256.6c.068,0,.127-.012.155-.012.821-.072.976-.156.976-.5a1.915,1.915,0,0,0-.169-.706l-.482-1.219h-3.181l-.541,1.431a1.362,1.362,0,0,0-.083.425c0,.353.325.533,1.076.577h.087v.357h-2.874V256.6a1.142,1.142,0,0,0,.535-.2c.268-.167.412-.409.736-1.187l.114-.27,3.143-7.752h.395l3.157,7.441.125.311c.621,1.447.809,1.655,1.415,1.655Zm-19.273,0H104.2V256.6l-.113-.012c-.976-.13-1.231-.409-1.231-1.383v-5.663h.029l6.3,7.669h.4v-8.336c0-.778.184-.992,1.02-1.117l.084-.014v-.353h-3.043v.353c1.046.113,1.316.394,1.316,1.4v4.287h-.029l-4.907-6.04h-2.987v.353c.3.014.507.186,1.13.949l.073.072v6.705c0,.791-.228,1-1.147,1.118l-.1.012Zm-9.52-9.566v.353c.581.043.81.1.965.243a.933.933,0,0,1,.284.762V255.6a.889.889,0,0,1-.258.749,1.619,1.619,0,0,1-.888.242l-.1.012v.357h8.279l.567-2.944h-.4a6.43,6.43,0,0,1-.595,1.088,2.948,2.948,0,0,1-.481.523,3.59,3.59,0,0,1-2.615.892c-.965,0-1.219-.17-1.219-.792V252.3a3.971,3.971,0,0,1,.962.1,1.58,1.58,0,0,1,.848.55,2.851,2.851,0,0,1,.481,1.545h.369V249.71H97.3c-.141.938-.281,1.3-.622,1.627-.353.358-.751.472-1.669.482v-3.281c0-.525.182-.669.876-.669a6.821,6.821,0,0,1,2.125.285,1.774,1.774,0,0,1,.48.327,2.409,2.409,0,0,1,.692,1.3c.028.141.073.284.1.452h.355v-2.842Zm-.763,9.566h-4.7V256.6l.1-.012c.537-.042.736-.1.906-.242a1.014,1.014,0,0,0,.253-.8v-7.134h-.027L83.7,256.957H83.32l-3.538-8.337h-.028V255.2c0,1,.284,1.3,1.316,1.383a.314.314,0,0,0,.113.012v.357H77.87V256.6l.1-.012c.977-.1,1.189-.3,1.189-1.118v-6.721c0-.72-.226-.906-1.16-.991l-.1-.014v-.353h3.582l2.828,6.677,2.83-6.677h3.566v.353l-.115.014c-.9.059-1.134.313-1.134,1.288V255.3a2.356,2.356,0,0,0,.1.776c.1.3.337.411,1.046.509l.1.012Z" transform="translate(-26.679 -233.459)"/><path class="e" d="M122.967,234.217a3.42,3.42,0,0,1,.047,1.481l-2.513-.007a1.134,1.134,0,0,0-.224-1.124,1.764,1.764,0,0,0-1.735-.288,3.418,3.418,0,0,0-1.7,1.736l-.321.684-.243.737-.143.672-.093.722a1.739,1.739,0,0,0,.7,1.593,1.709,1.709,0,0,0,1.725.035,2.111,2.111,0,0,0,.864-1.064h2.743l-.3.76a3.986,3.986,0,0,1-2.609,2.077l-.682.151-.729.081h-.709a3.567,3.567,0,0,1-2.88-1.285,3.888,3.888,0,0,1-.585-3.284l.169-.744.216-.678.19-.492.351-.765a4.817,4.817,0,0,1,3.247-2.655l.936-.107c1.409-.04,2.967-.064,3.92,1.1a2.409,2.409,0,0,1,.361.664m37.5,8.027,2.879-9.64h-2.737l-2.867,9.64ZM172.7,232.6l-.545,1.778h-4.234l-.608,2.037h4.1l-.559,1.808h-4.108l-.646,2.232,4.466,0s-.49,1.767-.5,1.783h-7.05c-.019-.031,2.807-9.639,2.807-9.639Zm-29.342,0h-6.87s-2.827,9.608-2.805,9.639h7.019c.012-.016.528-1.783.528-1.783l-4.468,0,.648-2.232h4.107l.557-1.808h-4.1l.605-2.037h4.236ZM61.08,234.341c.337.022.836.032,1.071.416a.868.868,0,0,1-.046.891,1.775,1.775,0,0,1-1.5.709H59.265l.6-2.017Zm1.178-1.752H57.869l-2.888,9.66,4.365-.006.925-.056.864-.109a3.88,3.88,0,0,0,1.978-.881,2.687,2.687,0,0,0,.755-2.743,1.99,1.99,0,0,0-1.746-1.247l-.018-.04c0-.016,0-.023.018-.03a3.37,3.37,0,0,0,1.871-.836,2.317,2.317,0,0,0,.612-2.391,2.423,2.423,0,0,0-2.348-1.322m-1.845,5.471a1.03,1.03,0,0,1,.866.458,1.1,1.1,0,0,1-.117,1.132,1.855,1.855,0,0,1-1.564.676H58.041s.6-2.05.655-2.266Zm50.718,1.247.3-1.572H108.5l-.343,1.578Zm-24.47,1.085,3.6-.007-.52,1.867-6.1,0L86.25,232.6l2.571,0s-2.186,7.772-2.16,7.788m63.284-2.486-.1-5.3-4.036-.007-2.936,9.647,2.381.006,2.315-7.7c.008,0,.023,0,.024.01l.03.9.216,6.784,2.164,0,4.389-6.815.549-.952c.023,0,.009.022.014.035l-.252.749-.327,1.059-1.663,5.929,2.581,0,2.692-9.649h-4.012l-3.364,5.245-.728,1.407c-.006-.007-.014-.009-.007-.016ZM80.8,234.831a1.194,1.194,0,0,0-1.088-.416H78.6l-.674,2.312h1.1a2.141,2.141,0,0,0,1.611-.547,1.331,1.331,0,0,0,.161-1.348m.258-2.225a2.477,2.477,0,0,1,2.172,1.1,2.241,2.241,0,0,1,.035,2.234,3.083,3.083,0,0,1-1.979,1.465l-.694.171c-.008,0-.008.02-.008.03A1.651,1.651,0,0,1,82,238.627l.056.367-.02.785-.072,1.449a2.429,2.429,0,0,0,.27,1.023l-2.6,0a1.8,1.8,0,0,1-.286-1.1l.053-1.187-.018-.749a.65.65,0,0,0-.288-.5,1.5,1.5,0,0,0-.685-.155H77.407c-.075,0-.075.074-.109.115l-1.052,3.58H73.655l2.856-9.646Zm-6.487,0H67.7s-2.827,9.607-2.8,9.633l7.045.006c.011-.016.5-1.782.5-1.782l-4.469,0,.645-2.232,4.129,0,.539-1.808-4.1,0,.607-2.037h4.235Zm53.433,0-1.049,3.675,3.186.007,1.114-3.681,2.725-.006-2.906,9.651h-2.723s1.2-4.056,1.178-4.064H126.3l-1.241,4.058h-2.7l2.883-9.64Zm-25.3,5.548-1.2-5.546-2.862,0-2.823,9.639H98.1l1.771-6.628.081-.557.018-.021c.011,0,.025,0,.027.015l.263,2.167.089.5,1.008,4.533h2.846l2.884-9.657-2.3.007-1.474,5.384-.342,1.883-.02.047a.023.023,0,0,1-.025-.014Zm-9.427,4.1H90.553l2.866-9.645h2.735Z" transform="translate(-25.1 -232.442)"/><path class="a" d="M35.951,234.235H34.3v-.421h1.655v.421Zm0,1.736H34.3v-.43l.014-.008,1.027-.642H34.3v-.4h1.655v.412l-.014.007-1.048.664h1.062v.4Zm0,.7H34.3v-.424h1.655v.424Zm-1.318,1.306H35v-.386a.45.45,0,0,0-.025-.174.143.143,0,0,0-.151-.093.166.166,0,0,0-.169.089.4.4,0,0,0-.024.166Zm1.318.416H34.3v-.89a.888.888,0,0,1,.044-.293.448.448,0,0,1,.119-.18.432.432,0,0,1,.142-.1.412.412,0,0,1,.179-.035.456.456,0,0,1,.237.067.328.328,0,0,1,.142.157.358.358,0,0,1,.108-.123.549.549,0,0,1,.267-.052h.107a.558.558,0,0,0,.141-.011.1.1,0,0,0,.074-.05l.007-.014h.088v.452l-.021.006c-.036.012-.066.02-.088.026a.857.857,0,0,1-.142.016l-.149,0a.247.247,0,0,0-.182.051.318.318,0,0,0-.044.2v.351h.627v.416Zm-1.173,1.032.511.184v-.361Zm1.173.873-.04-.016-1.6-.626-.018-.008V239.2l.018-.007,1.6-.624.04-.014v.462l-.021.006-.307.109v.6l.307.115.021.007v.446Zm0,1.627H34.3v-.43l.014-.007,1.027-.646H34.3v-.4h1.655v.412l-.014.009-1.048.662h1.062v.4Zm0,1.608H34.3v-1.344h.342v.928h.279v-.853h.337v.853h.351v-.971h.346v1.387Zm0,2.045H34.3V245l.022-.007,1.141-.29-1.141-.288-.022-.007v-.579h1.655v.4h-1.12l1.1.271.024.007v.4l-.024.006-1.1.27h1.12v.4Z" transform="translate(-23.674 -232.536)"/></g></svg>