<?xml version="1.0" encoding="UTF-8" standalone="no"?>
<!-- Created with Inkscape (http://www.inkscape.org/) -->
<!DOCTYPE svg PUBLIC "-//W3C//DTD SVG 1.1//EN" "http://www.w3.org/Graphics/SVG/1.1/DTD/svg11.dtd">
<svg
   xmlns:svg="http://www.w3.org/2000/svg"
   xmlns="http://www.w3.org/2000/svg"
   version="1.1"
   width="400"
   height="120"
   id="svg2816"
   xml:space="preserve"><defs
     id="defs2820" /><g
     transform="matrix(1.25,0,0,-1.25,0,120)"
     id="g2826"><g
       transform="matrix(2.4834907,0,0,2.4834907,-82.448734,-1928.4364)"
       id="g2984"><path
         d="m 45.42,812.18 4.8,0 0.24,-0.24 0.18,-0.24 c 0.766,-1.439 0.732,-1.57 0.84,-3.3 0.016,-2.554 -1.43,-5.325 0.18,-7.68 1.281,-1.434 3.181,-2.031 4.8,-3 l 0.54,-0.48 0.48,-0.48 0.48,-0.6 0.36,-0.66 0.36,-0.78 0.18,-0.96 0.18,-1.08 0.06,-1.2 0,-12 -4.86,0 0,13.2 -0.18,1.08 -0.24,0.9 -0.36,0.78 -0.36,0.72 -0.48,0.54 -0.48,0.48 c -1.364,1.337 -3.331,1.646 -4.92,3.12 -3.171,3.399 1.515,8.094 -1.8,11.88"
         id="path2836"
         style="fill:#0063be;fill-opacity:1;fill-rule:evenodd;stroke:none" /><path
         d="m 36.42,812.18 4.74,0 0.24,-0.24 0.18,-0.24 c 0.497,-1.018 0.915,-2.142 0.78,-3.3 0.045,-2.363 -1.168,-4.857 -0.06,-7.14 0.775,-1.786 3.482,-2.483 5.04,-3.54 l 1.08,-0.96 0.42,-0.6 0.36,-0.66 0.36,-0.78 0.18,-0.96 0.18,-1.08 0.06,-1.2 0,-12 -4.8,0 0,12 -0.06,1.2 -0.18,1.08 -0.18,0.9 c -0.75,1.746 -0.835,1.748 -2.22,3 -1.545,1.069 -3.518,1.554 -4.74,3.06 -1.442,1.913 -0.422,4.78 -0.24,6.96 l 0,1.68 -0.18,0.78 -0.12,0.66 -0.24,0.48 -0.24,0.42 -0.18,0.24 -0.18,0.18 0,0.06"
         id="path2838"
         style="fill:#0063be;fill-opacity:1;fill-rule:evenodd;stroke:none" /><path
         d="m 54.42,812.18 4.8,0 0.06,-0.06 0.12,-0.18 0.18,-0.24 0.24,-0.42 0.24,-0.48 0.24,-0.66 0.12,-0.78 c 0.369,-2.703 -1.349,-5.486 -0.12,-8.1 0.9,-1.723 3.428,-2.505 5.1,-3.54 l 0.48,-0.48 0.54,-0.48 0.48,-0.6 0.36,-0.66 0.36,-0.78 0.18,-0.96 0.24,-1.08 0,-13.2 -4.86,0 0,13.2 -0.18,1.08 -0.24,0.9 c -0.7,1.992 -0.832,1.636 -2.16,3 -1.572,1.028 -3.547,1.52 -4.74,3.06 -1.542,1.927 -0.478,4.698 -0.3,6.96 l 0.06,0.72 -0.06,0.96 -0.12,0.78 -0.18,0.66 -0.24,0.48 -0.24,0.42 -0.18,0.24 -0.18,0.18 0,0.06"
         id="path2840"
         style="fill:#0063be;fill-opacity:1;fill-rule:evenodd;stroke:none" /><path
         d="m 104.58,783.74 0,-2.16 2.76,0 0.3,0.24 0.24,0.18 0.12,0.3 0.06,0.42 -0.06,0.42 -0.18,0.36 -0.42,0.18 -0.48,0.06 -2.34,0 z m -8.4,3 -1.02,-3.24 1.98,0 -0.96,3.24 z m 8.4,0.72 0,-1.74 2.22,0 0.48,0.12 0.3,0.12 0.18,0.3 0.06,0.36 -0.06,0.24 -0.12,0.24 -0.18,0.18 -0.3,0.12 -0.36,0.06 -2.22,0 z m 7.62,2.04 2.58,0 0,-10.02 -2.58,0 0,10.02 z m -10.08,0 4.8,0 0.9,-0.06 0.78,-0.18 0.66,-0.24 0.48,-0.42 0.3,-0.42 c 0.539,-1.232 0.366,-2.595 -0.9,-3.24 1.455,-0.76 1.529,-1.455 1.38,-3.06 l -0.24,-0.66 -0.42,-0.6 -0.54,-0.48 -0.66,-0.36 -0.84,-0.18 -0.96,-0.12 -4.74,0 0,10.02 z m -7.26,0 2.58,0 3.66,-10.02 -2.7,0 -0.6,1.98 -3.36,0 -0.54,-1.98 -2.7,0 3.66,10.02 z m -13.2,0 2.58,0 0,-3.78 3,3.78 3.06,0 -3,-3.48 3.48,-6.54 -3.06,0 -2.28,4.5 -1.2,-1.5 0,-3 -2.58,0 0,10.02"
         id="path2842"
         style="fill:#0063be;fill-opacity:1;fill-rule:evenodd;stroke:none" /><path
         d="m 92.64,802.4 0,-2.28 2.46,0 0.36,0.18 0.3,0.24 0.12,0.36 0.06,0.42 -0.06,0.36 -0.12,0.3 -0.3,0.24 -0.36,0.12 -0.48,0.06 -1.98,0 z m 48.48,2.16 2.58,0 0,-6.36 0.18,-0.48 0.24,-0.48 0.3,-0.3 0.48,-0.24 0.54,-0.06 0.48,0.06 0.42,0.24 0.36,0.3 0.24,0.48 0.12,0.48 0.06,0.66 0,5.7 2.58,0 c -0.279,-3.819 1.579,-10.1 -4.26,-10.14 -5.9,-0.013 -4.044,6.277 -4.32,10.14 z m -4.26,0 2.58,0 0,-10.02 -2.58,0 0,10.02 z m -10.44,0 2.28,0 3.9,-5.46 0,5.46 2.4,0 0,-10.02 -2.04,0 -4.08,5.76 0,-5.76 -2.46,0 0,10.02 z m -8.82,0 7.26,0 0,-2.22 -4.74,0 0,-1.44 3.18,0 0,-2.16 -3.18,0 0,-2.04 5.1,0 0,-2.16 -7.62,0 0,10.02 z m -17.7,0 7.26,0 0,-2.22 -4.74,0 0,-1.44 3.18,0 0,-2.16 -3.18,0 0,-2.04 5.1,0 0,-2.16 -7.62,0 0,10.02 z m -9.78,0 5.34,0 0.78,-0.18 0.6,-0.24 0.6,-0.3 0.42,-0.48 0.36,-0.54 c 0.579,-1.752 0.212,-3.656 -1.62,-4.44 l 1.98,-3.84 -2.82,0 -1.68,3.48 -1.44,0 0,-3.48 -2.52,0 0,10.02 z m -8.46,0 7.5,0 0,-2.22 -4.98,0 0,-1.5 3.54,0 0,-2.28 -3.54,0 0,-4.02 -2.52,0 0,10.02 z m 73.14,0.18 c 1.763,-0.056 2.408,-0.213 3.84,-1.26 l -1.32,-1.92 -0.66,0.42 -0.6,0.3 -0.66,0.12 -0.72,0.06 -0.48,0 -0.36,-0.12 -0.18,-0.18 -0.12,-0.18 -0.06,-0.24 0.06,-0.18 0.18,-0.24 0.3,-0.12 c 1.117,-0.368 2.252,-0.583 3.36,-1.08 1.832,-0.907 1.874,-3.682 0.42,-4.92 -1.826,-1.361 -5.546,-0.873 -7.2,0.6 l 1.38,1.8 c 3.697,-2.394 6.321,0.192 2.4,0.9 -5.243,0.677 -4.054,6.452 0.42,6.24 z m -42.6,0 c 1.916,-0.064 2.315,-0.229 3.9,-1.26 l -1.38,-1.92 -0.6,0.42 -0.66,0.3 -0.66,0.12 -0.72,0.06 -0.48,0 -0.36,-0.12 -0.18,-0.18 -0.12,-0.18 -0.06,-0.24 0.06,-0.18 0.18,-0.24 0.36,-0.12 c 1.052,-0.387 2.223,-0.583 3.3,-1.08 1.815,-0.88 1.92,-3.765 0.36,-4.92 -1.786,-1.388 -5.527,-0.832 -7.14,0.6 l 1.44,1.8 0.54,-0.36 0.72,-0.3 0.78,-0.24 0.78,-0.06 0.54,0 0.42,0.06 0.24,0.18 c 0.917,1.16 -0.955,1.407 -1.68,1.62 -5.122,0.643 -4.172,6.396 0.42,6.24"
         id="path2844"
         style="fill:#0063be;fill-opacity:1;fill-rule:evenodd;stroke:none" /></g></g></svg>