<svg xmlns="http://www.w3.org/2000/svg" width="83.314" height="45.434" viewBox="0 0 83.314 45.434"><defs><style>.a{fill:#e50019;fill-rule:evenodd;}</style></defs><path class="a" d="M203.134,67.049a2.021,2.021,0,0,1,2.022,2.022,2.024,2.024,0,1,1-4.044,0,2.02,2.02,0,0,1,2.021-2.022Zm46.286,7.023c-3.193,3.193-13.3,11.917-15.961,19.366l-3.193-.851c1.064-3.086,4.257-7.874,7.875-11.491a5.93,5.93,0,0,1-2.235.425,2.366,2.366,0,0,1-2.659-2.448v-.425c-3.086,1.915-5.64,2.873-8.194,2.873A4.548,4.548,0,0,1,220.8,79.18a21.44,21.44,0,0,1-8.725,2.342c-2.341,0-4.257-.958-5.108-2.661-3.193,1.81-5.852,2.661-7.98,2.661a3.937,3.937,0,0,1-2.873-1.064,2.2,2.2,0,0,1-.745-1.809c-2.022,1.276-5,2.873-8.086,2.873a11.748,11.748,0,0,1-6.811-2.128,17.721,17.721,0,0,1-8.512,2.128c-2.234,0-5.853-.958-5.853-4.257,0-2.661,2.66-4.469,6.384-4.469a14.051,14.051,0,0,1,7.98,2.766,43.36,43.36,0,0,0,5.959-6.277h-1.49c-4.256,0-7.767-1.277-9.682-3.4a5.967,5.967,0,0,1-1.6-4.151c0-5.852,7.554-10.428,14.045-11.172.425.957.851,1.809,1.169,2.66-6.383.745-11.809,4.575-11.809,8.3,0,2.448,2.766,4.894,8.619,4.894a13.529,13.529,0,0,0,2.978-.213C193.878,59.07,201.858,48,208.668,48a2.746,2.746,0,0,1,3.085,2.873c0,3.4-2.979,7.022-4.894,8.937A30.773,30.773,0,0,1,191,68.646a44.206,44.206,0,0,1-7.662,8.725,8.38,8.38,0,0,0,4.469,1.277c4.044,0,7.874-3.724,10.959-6.811l.107-.106,2.447,1.809-.106.213c-1.384,1.49-2.66,3.192-2.66,4.043,0,.746.638.852,1.17.852,1.49,0,3.936-.958,6.7-2.767h0c.319-6.916,9.789-17.557,15.534-17.557,1.6,0,2.554.852,2.554,2.235,0,3.512-6.065,10.96-14.79,16.706h0c.532.957,1.489,1.384,3.3,1.384a18.57,18.57,0,0,0,7.234-2.235,19.3,19.3,0,0,1,5-10.215c2.66-2.766,5.533-4.575,7.981-4.575,1.6,0,2.553.851,2.553,2.235,0,2.979-3.512,8.194-12.023,13.619a2.184,2.184,0,0,0,2.234,1.171c2.555,0,6.917-2.66,10.428-5.959l2.448,1.914c-1.063,1.277-2.128,2.661-2.022,3.512,0,.213.107.426.533.426,2.553,0,6.6-3.4,9.576-6.385l2.448,1.915Zm-55.755-9.15a24.62,24.62,0,0,0,9.9-6.278c2.448-2.447,4.469-5.32,4.469-6.7a.5.5,0,0,0-.533-.532c-1.169,0-3.3,1.49-6.171,4.363a76.34,76.34,0,0,0-7.661,9.15ZM177.7,77.371a10.323,10.323,0,0,0-5.425-1.809c-1.915,0-3.085.745-3.085,1.7s1.489,1.49,3.085,1.49a12.075,12.075,0,0,0,5.425-1.384Zm32.029-3.511c5.213-3.937,10.746-9.683,11.278-12.023v-.213c0-.212,0-.318-.212-.318-1.7,0-9.363,7.128-11.065,12.555Zm13.832.638a17.724,17.724,0,0,0,1.49-1.063c3.725-3.086,6.6-6.385,7.235-8.193v-.319c0-.213,0-.319-.212-.319-1.7,0-7.236,5.533-8.619,10h0l.106-.106Z" transform="translate(-166.106 -48.004)"/></svg>