<svg xmlns="http://www.w3.org/2000/svg" width="144.382" height="22.836" viewBox="0 0 144.382 22.836"><defs><style>.a{fill:#00558a;fill-rule:evenodd;}</style></defs><path class="a" d="M443.391,286.1v9.53c0,6.381,6.568,12.619,12.927,12.619a9.279,9.279,0,0,0,9.352-8.228c.138-.845.428-1.609-.652-1.609h-3.047a2.124,2.124,0,0,0-2.2,1.062c-1.081,1.763-1.158,2.942-3.518,2.942-2.979,0-6.719-3.437-6.719-7.587a3.326,3.326,0,0,1,3.522-3.568c2.69,0,3.07,1.725,4.8,1.725,1.3,0,2.9-1.982,3.915-2.993a.552.552,0,0,0,.009-.92,13.11,13.11,0,0,0-8.224-3.662h-9.535c-.488,0-.622.21-.627.687m24.421.1v20.731c0,.7.065.983.784.983,5.554,0,4.561-4,8.31-3.968,3.179.026,9.016,3.968,12.208,3.968.882,0,1.093-.012,1.093-.9,0-.264-.021-1.932-.021-2.175,0-4.816-7.4-3.781-7.4-7.443,0-2.328,7.412-6.437,7.412-9.849,0-1.3-.723-2.127-2.527-2.127-2.656,0-3.629,1.129-5.073,2.6l-8.674,8.839v-8.2a3.354,3.354,0,0,0-3.461-3.241h-1.6C468.192,285.414,467.812,285.507,467.812,286.2Zm-48.841.035v20.448c0,1.2.219,1.231,1.594,1.231,2.873,0,4.492-2.561,4.518-5.11v-9.632c0-1.852,2.357-2.281,3.6-2.281,2.865,0,6.23,1.518,6.23,3.934,0,1.452-1.619,2.168-3.244,2.168-2.2,0-2.964-.837-3.766-.837-.355,0-.454.283-.454.564v2.743a2.523,2.523,0,0,0,1.067,1.958l6.96,5.588a3.953,3.953,0,0,0,2.472.9h4.438c.868,0,1-.09,1-.956v-1.4c0-.331-.255-.45-.541-.56-2.079-.809-3.941-2.708-5.712-3.984,2.822-1.54,4.24-3.292,4.231-5.842-.021-5.84-7.775-9.758-12.607-9.758h-8.91C419.024,285.414,418.971,285.406,418.971,286.233Zm-24.308-.19v9.693c0,6.155,6.015,12.175,12.492,12.175h9.208c.49,0,.686-.181.686-.667v-2.059a3.222,3.222,0,0,0-3.278-3.169l-6.716-.007c-4.037,0-6.562-3.655-6.562-7.147,0-2.11,1.346-3.631,3.92-3.625,3.085.007,4.593,1.774,6.1,3.447H404.25c-.91,0-.992.107-.992.867,0,2.43,2.577,4.108,4.872,4.108H413.7c2.261,0,3.355-.766,3.355-3.026-.071-4.99-6.3-11.219-12.775-11.219h-8.884C394.793,285.414,394.664,285.433,394.664,286.043Zm-48.84.036v18.755a3.6,3.6,0,0,0,3.11,3.077h2.138c.661,0,.971-.323.971-.895v-6.825a2.882,2.882,0,0,1,3-2.656c5.653,0,9.544,8.905,14.2,8.905,4.36,0,8.857-8.911,14.1-8.911a3.035,3.035,0,0,1,3.148,2.831v4.288a3.371,3.371,0,0,0,3.4,3.261h2.064a.7.7,0,0,0,.668-.609V288.6a3.583,3.583,0,0,0-3.136-3.19h-3.954c-2.355,1.168-7.5,10.308-16.358,10.308-10.432,0-12.623-10.308-18.31-10.308h-4.36A.662.662,0,0,0,345.824,286.08Z" transform="translate(-345.824 -285.414)"/></svg>