<svg xmlns="http://www.w3.org/2000/svg" xmlns:xlink="http://www.w3.org/1999/xlink" width="154.972" height="45.027" viewBox="0 0 154.972 45.027"><defs><style>.a{fill:none;}.b{clip-path:url(#a);}.c{clip-path:url(#b);}.d{fill:#008dc1;}.e{clip-path:url(#c);}.f{clip-path:url(#e);}.g{clip-path:url(#g);}.h{clip-path:url(#i);}.i{clip-path:url(#k);}.j{fill:#a0a4a6;}.k{clip-path:url(#m);}.l{clip-path:url(#o);}.m{clip-path:url(#q);}.n{clip-path:url(#s);}.o{clip-path:url(#u);}.p{clip-path:url(#w);}.q{clip-path:url(#y);}.r{fill:#b7babd;}.s{clip-path:url(#aa);}.t{clip-path:url(#ac);}.u{clip-path:url(#ae);}.v{fill:#b7dcee;}.w{fill:#d0d1d3;}.x{clip-path:url(#ai);}.y{clip-path:url(#ak);}.z{clip-path:url(#am);}.aa{clip-path:url(#ao);}.ab{clip-path:url(#aq);}.ac{clip-path:url(#as);}.ad{clip-path:url(#au);}.ae{clip-path:url(#aw);}.af{clip-path:url(#ay);}.ag{clip-path:url(#ba);}.ah{clip-path:url(#bc);}.ai{clip-path:url(#be);}.aj{clip-path:url(#bg);}.ak{clip-path:url(#bi);}.al{clip-path:url(#bk);}.am{clip-path:url(#bm);}.an{clip-path:url(#bo);}.ao{clip-path:url(#bq);}.ap{clip-path:url(#bs);}.aq{clip-path:url(#bw);}.ar{clip-path:url(#by);}.as{clip-path:url(#ca);}.at{fill:#222e5d;}.au{clip-path:url(#cc);}.av{fill:#58b9dc;}.aw{clip-path:url(#ce);}.ax{clip-path:url(#cg);}</style><clipPath id="a"><path class="a" d="M123.315-10.487a7.532,7.532,0,0,1,0-4.138,3.729,3.729,0,0,1,3.457-2.323,3.729,3.729,0,0,1,3.457,2.323,7.408,7.408,0,0,1,.284,2.519.176.176,0,0,1-.058.132.177.177,0,0,1-.138.044H125.1a.1.1,0,0,0-.1.1,1.883,1.883,0,0,0,.12.63,1.845,1.845,0,0,0,1.9,1.26A2.532,2.532,0,0,0,129-10.745a.184.184,0,0,1,.133-.057.183.183,0,0,1,.133.057l1.037.907a.163.163,0,0,1,.056.123.163.163,0,0,1-.056.123,4.432,4.432,0,0,1-3.457,1.461,3.42,3.42,0,0,1-3.527-2.337m5.1-3.722a1.808,1.808,0,0,0-1.656-1.079,1.808,1.808,0,0,0-1.656,1.079,2.185,2.185,0,0,0-.1.718.107.107,0,0,0,.1.107h3.312a.114.114,0,0,0,.107-.107,2.18,2.18,0,0,0-.107-.718" transform="translate(-123.025 16.949)"/></clipPath><clipPath id="b"><path class="a" d="M-1337,271.059H-300.452V-312H-1337Z" transform="translate(1337 312)"/></clipPath><clipPath id="c"><path class="a" d="M144.157-8.344a.177.177,0,0,1-.177-.176v-.63h0a2.76,2.76,0,0,1-2.4,1.014c-1.542,0-2.838-.8-2.838-2.563s1.264-2.671,3.381-2.671h1.719a.107.107,0,0,0,.1-.107v-.4c0-.957-.455-1.392-1.9-1.392a2.965,2.965,0,0,0-1.928.573.164.164,0,0,1-.123.055.165.165,0,0,1-.123-.055l-.632-1.153a.157.157,0,0,1-.048-.113.157.157,0,0,1,.048-.113,4.923,4.923,0,0,1,3.015-.875c2.579,0,3.52.875,3.52,2.935V-8.35Zm-.215-2.828v-.63a.107.107,0,0,0-.1-.107h-1.4c-1.264,0-1.82.353-1.82,1.14s.506,1.046,1.454,1.046c1.207,0,1.9-.472,1.9-1.43" transform="translate(-138.746 16.958)"/></clipPath><clipPath id="e"><path class="a" d="M157.333-11.02c-1.643,0-2.313-.781-2.313-2.406v-9.567h1.966v9.448c0,.579.228.768.733.768h.386a.183.183,0,0,1,.177.176v1.568h-.948Z" transform="translate(-155.02 22.993)"/></clipPath><clipPath id="g"><path class="a" d="M165.3-10.274c-1.7,0-2.345-.819-2.345-2.456v-4.409a.107.107,0,0,0-.107-.107h-.562a.171.171,0,0,1-.123-.052.17.17,0,0,1-.048-.124v-1.2a.17.17,0,0,1,.171-.17h.563a.114.114,0,0,0,.107-.107v-2.475h1.959v2.582h1.4v1.518h-1.4v4.466c0,.63.247.787.79.787h.436a.183.183,0,0,1,.177.176v1.568Z" transform="translate(-162.114 21.372)"/></clipPath><clipPath id="i"><path class="a" d="M177.885-11.121h0v-5.039c0-1.077-.544-1.827-1.593-1.827s-1.612.75-1.612,1.827v5.039h-1.959V-22.993h1.959v4.245h0a2.678,2.678,0,0,1,2.459-.983,2.908,2.908,0,0,1,2.711,2.922v5.669Z" transform="translate(-172.721 22.993)"/></clipPath><clipPath id="k"><path class="a" d="M187.408-12.646a.188.188,0,0,1-.038-.265l1.087-1.26a.152.152,0,0,1,.12-.059.152.152,0,0,1,.12.059,5.351,5.351,0,0,0,3.242,1.26c1.422,0,2.244-.712,2.244-1.707,0-.857-.525-1.417-2.174-1.644l-.632-.088c-2.3-.315-3.6-1.411-3.6-3.382,0-2.148,1.58-3.578,4.032-3.578a6.526,6.526,0,0,1,3.849,1.184.157.157,0,0,1,.079.114.157.157,0,0,1-.041.132l-.841,1.291a.171.171,0,0,1-.112.079.171.171,0,0,1-.134-.029,5.068,5.068,0,0,0-2.819-.945c-1.207,0-1.9.668-1.9,1.594,0,.819.575,1.379,2.187,1.606l.632.082c2.294.315,3.558,1.4,3.558,3.439s-1.53,3.7-4.481,3.7a6.727,6.727,0,0,1-4.374-1.568" transform="translate(-187.332 23.31)"/></clipPath><clipPath id="m"><path class="a" d="M206.06-10.477a8.266,8.266,0,0,1,0-4.157,3.4,3.4,0,0,1,3.483-2.324,3.69,3.69,0,0,1,2.926,1.31.17.17,0,0,1,.053.123.17.17,0,0,1-.053.123l-1.119.964a.158.158,0,0,1-.123.059.158.158,0,0,1-.123-.059,1.9,1.9,0,0,0-1.561-.737,1.554,1.554,0,0,0-1.574,1.1,4.971,4.971,0,0,0-.177,1.556,3.335,3.335,0,0,0,.487,2.154,1.265,1.265,0,0,0,.86.472,2,2,0,0,0,1.966-.768.158.158,0,0,1,.123-.059.158.158,0,0,1,.123.059l1.1.957c.088.069.069.157,0,.246a3.716,3.716,0,0,1-2.926,1.26,3.394,3.394,0,0,1-3.483-2.318" transform="translate(-205.794 16.967)"/></clipPath><clipPath id="o"><path class="a" d="M220.756-21.139h0v-1.89h1.959v1.89Zm0,10h0v-8.415h1.959v8.415Z" transform="translate(-220.756 23.028)"/></clipPath><clipPath id="q"><path class="a" d="M227.28-10.485a6.473,6.473,0,0,1-.3-2.06,6.635,6.635,0,0,1,.278-2.079,3.735,3.735,0,0,1,3.46-2.321,3.735,3.735,0,0,1,3.46,2.321,7.615,7.615,0,0,1,.278,2.519.17.17,0,0,1-.054.132.171.171,0,0,1-.136.045h-5.208a.1.1,0,0,0-.1.1,1.884,1.884,0,0,0,.12.63,1.852,1.852,0,0,0,1.9,1.26,2.533,2.533,0,0,0,1.978-.806c.088-.082.177-.1.259,0l1.037.907a.157.157,0,0,1,.059.123.157.157,0,0,1-.059.123A4.47,4.47,0,0,1,230.8-8.129a3.412,3.412,0,0,1-3.52-2.337m5.094-3.722a1.631,1.631,0,0,0-1.643-1.077,1.644,1.644,0,0,0-1.669,1.077,2.185,2.185,0,0,0-.1.718.107.107,0,0,0,.1.107h3.312a.114.114,0,0,0,.107-.107,2.179,2.179,0,0,0-.107-.718" transform="translate(-226.98 16.944)"/></clipPath><clipPath id="s"><path class="a" d="M248.6-8.357V-13.4c0-1.077-.544-1.827-1.593-1.827s-1.567.775-1.567,1.833v5.039H243.48v-8.421h1.782a.171.171,0,0,1,.127.05.17.17,0,0,1,.05.127v.63h0a2.678,2.678,0,0,1,2.433-1,2.908,2.908,0,0,1,2.711,2.922v5.669Z" transform="translate(-243.48 16.987)"/></clipPath><clipPath id="u"><path class="a" d="M259.328-10.476a8.266,8.266,0,0,1,0-4.157,3.413,3.413,0,0,1,3.489-2.324,3.684,3.684,0,0,1,2.92,1.31.17.17,0,0,1,.053.123.17.17,0,0,1-.053.123l-1.119.964a.158.158,0,0,1-.123.059.158.158,0,0,1-.123-.059,1.9,1.9,0,0,0-1.555-.737,1.554,1.554,0,0,0-1.58,1.1,4.97,4.97,0,0,0-.177,1.556,3.335,3.335,0,0,0,.487,2.154,1.265,1.265,0,0,0,.86.472,2,2,0,0,0,1.966-.768.158.158,0,0,1,.123-.059.158.158,0,0,1,.123.059l1.1.957c.088.069.076.157,0,.246A3.71,3.71,0,0,1,262.8-8.2a3.407,3.407,0,0,1-3.489-2.318" transform="translate(-259.062 16.967)"/></clipPath><clipPath id="w"><path class="a" d="M273.477-10.485a6.472,6.472,0,0,1-.3-2.06,6.635,6.635,0,0,1,.278-2.079,3.735,3.735,0,0,1,3.46-2.321,3.735,3.735,0,0,1,3.46,2.321,7.616,7.616,0,0,1,.278,2.519.17.17,0,0,1-.054.132.171.171,0,0,1-.136.045h-5.2a.107.107,0,0,0-.107.1,1.745,1.745,0,0,0,.126.63,1.839,1.839,0,0,0,1.9,1.26,2.533,2.533,0,0,0,1.978-.806c.089-.082.177-.1.259,0l1.037.907a.157.157,0,0,1,.059.123.157.157,0,0,1-.059.123A4.47,4.47,0,0,1,277-8.129a3.412,3.412,0,0,1-3.52-2.337m5.094-3.722a1.8,1.8,0,0,0-1.653-1.081,1.8,1.8,0,0,0-1.653,1.081,2.021,2.021,0,0,0-.107.718.114.114,0,0,0,.107.107h3.306a.107.107,0,0,0,.107-.107,2.021,2.021,0,0,0-.107-.718" transform="translate(-273.178 16.944)"/></clipPath><clipPath id="y"><path class="a" d="M47.773-23.633l-2.655-4.585a.41.41,0,0,0-.1-.107.41.41,0,0,1,.1.107l2.655,4.585" transform="translate(-45.018 28.325)"/></clipPath><clipPath id="aa"><path class="a" d="M50.2-12.07h0l1.4-2.406.032-.082-.032.082L50.2-12.07Z" transform="translate(-50.204 14.558)"/></clipPath><clipPath id="ac"><path class="a" d="M43.62-10.09a.411.411,0,0,1-.1-.082.411.411,0,0,0,.1.082" transform="translate(-43.519 10.172)"/></clipPath><clipPath id="ae"><path class="a" d="M70.417-43.777h0l-5.606-9.7a.335.335,0,0,0-.3-.176H61.095l-1.34,2.3a.427.427,0,0,0-.044.17.427.427,0,0,1,.044-.17l1.334-2.3h3.407a.335.335,0,0,1,.3.176l5.625,9.7" transform="translate(-59.71 53.653)"/></clipPath><clipPath id="ai"><path class="a" d="M38.639-18.573l-.038-.05L32.912-28.43,38.6-18.623l.038.05Z" transform="translate(-32.912 28.43)"/></clipPath><clipPath id="ak"><path class="a" d="M52.85-14.773a.32.32,0,0,0,0-.252.32.32,0,0,1,0,.252" transform="translate(-52.85 15.025)"/></clipPath><clipPath id="am"><path class="a" d="M51.55-17.152l-1.428-2.482Z" transform="translate(-50.122 19.633)"/></clipPath><clipPath id="ao"><path class="a" d="M44.655-28.442a.31.31,0,0,1,.2.069.31.31,0,0,0-.2-.069h0" transform="translate(-44.655 28.442)"/></clipPath><clipPath id="aq"><path class="a" d="M32.865-28.463l5.688,9.813.038.05a.335.335,0,0,0,.259.12H42.2l1.409-2.406v-.082a.32.32,0,0,0,0-.252h0l-1.441-2.519-2.655-4.579a.4.4,0,0,0-.3-.17H32.865" transform="translate(-32.865 28.488)"/></clipPath><clipPath id="as"><path class="a" d="M59.777-48.835l-.032-.082.032.082,4.1,7.067.032.038-.032-.038-4.1-7.067Z" transform="translate(-59.745 48.917)"/></clipPath><clipPath id="au"><path class="a" d="M67.624-35.442a.38.38,0,0,0,.171.044h0a.38.38,0,0,1-.171-.044" transform="translate(-67.624 35.442)"/></clipPath><clipPath id="aw"><path class="a" d="M27.473-17.1a.289.289,0,0,0-.038-.145l-1.688-2.9,1.688,2.9a.289.289,0,0,1,.038.145" transform="translate(-25.747 20.147)"/></clipPath><clipPath id="ay"><path class="a" d="M23.423-10.86l-2.054-3.546,2.054,3.546,1.612-2.79-1.612,2.79Z" transform="translate(-21.369 14.407)"/></clipPath><clipPath id="ba"><path class="a" d="M23.406-19.853l.885-1.531Z" transform="translate(-23.406 21.383)"/></clipPath><clipPath id="bc"><path class="a" d="M28.183-13.694l.386-.668a.251.251,0,0,0,.038-.139.251.251,0,0,1-.038.139l-.386.668" transform="translate(-28.183 14.5)"/></clipPath><clipPath id="be"><path class="a" d="M25.045-21.372h0l.379.661-.379-.661Z" transform="translate(-25.045 21.372)"/></clipPath><clipPath id="bg"><path class="a" d="M21.337-16.647l1.1-1.89-1.1,1.89a.345.345,0,0,0,0,.315.345.345,0,0,1,0-.315" transform="translate(-21.299 18.537)"/></clipPath><clipPath id="bi"><path class="a" d="M21.337-17.925a.345.345,0,0,0,0,.315h0l2.054,3.54,1.624-2.759L25.4-17.5a.251.251,0,0,0,.038-.139.289.289,0,0,0-.038-.145l-1.688-2.9-.379-.63-.885,1.524-1.1,1.89" transform="translate(-21.299 21.313)"/></clipPath><clipPath id="bk"><path class="a" d="M35.61-13.579H27.425a.341.341,0,0,1-.291-.17l-2.041-3.527,1.624-2.784.386-.63h0a.257.257,0,0,0,0-.12.289.289,0,0,0-.038-.145l-1.681-2.9L25-24.526l2.111-3.641a.342.342,0,0,1,.291-.17h1.846l5.688,9.813.038.05a.3.3,0,0,0,.1.082.342.342,0,0,0,.158.038h3.35l-2.7,4.661a.361.361,0,0,1-.3.17" transform="translate(-24.998 28.337)"/></clipPath><clipPath id="bm"><path class="a" d="M43.864-9.982h0a.342.342,0,0,1-.158-.038.342.342,0,0,0,.158.038" transform="translate(-43.706 10.02)"/></clipPath><clipPath id="bo"><path class="a" d="M28.183-13.576l.386-.668h0l-.386.668" transform="translate(-28.183 14.243)"/></clipPath><clipPath id="bq"><path class="a" d="M51.294-30.054H41.377l1.384-2.406v-.082a.427.427,0,0,0,0-.088.3.3,0,0,0-.044-.164h0l-1.441-2.519-2.655-4.579a.41.41,0,0,0-.1-.107.348.348,0,0,0-.2-.063H32.017l-.948-1.644a.327.327,0,0,1,0-.34l6.636-11.425a.329.329,0,0,1,.3-.17h9.891l-1.34,2.3a.371.371,0,0,0-.044.164h0v.164l4.146,7.1v.038a.316.316,0,0,0,.095.088.38.38,0,0,0,.171.044h6.264l1.043,1.719a.327.327,0,0,1,0,.34L51.61-30.224a.335.335,0,0,1-.3.17" transform="translate(-31.021 53.642)"/></clipPath><clipPath id="bs"><path class="a" d="M59.717-51.184a.339.339,0,0,1,.044-.17l1.334-2.3-1.34,2.3a.427.427,0,0,0-.044.17h0" transform="translate(-59.71 53.653)"/></clipPath><clipPath id="bw"><path class="a" d="M59.755-51.091v.082l4.1,7.1v.038a.423.423,0,0,0,.095.088.38.38,0,0,0,.171.044h6.264l-5.575-9.731a.348.348,0,0,0-.3-.17H61.095l-1.34,2.293a.339.339,0,0,0-.044.17h0v.082" transform="translate(-59.71 53.642)"/></clipPath><clipPath id="by"><path class="a" d="M103.906-22.993h2.067v4.957h4.747v-4.957h2.067v11.873h-2.067v-5.064h-4.747v5.064h-2.067V-22.993Z" transform="translate(-103.906 22.993)"/></clipPath><clipPath id="ca"><path class="a" d="M120.926-83.029a1.69,1.69,0,0,0-.367,1.216v15.746h-.082s-8.659-15.375-9.076-16.086a2.952,2.952,0,0,0-1.062-1.109,3.207,3.207,0,0,0-1.789-.409h-2.844a1.69,1.69,0,0,0-1.378.6,1.715,1.715,0,0,0-.379,1.2v22.309a1.728,1.728,0,0,0,.379,1.2,1.69,1.69,0,0,0,1.378.567h1.618a1.678,1.678,0,0,0,1.378-.567,1.7,1.7,0,0,0,.386-1.2V-75.7h.095s8.988,15.853,9.354,16.445a2.9,2.9,0,0,0,2.579,1.455h2.762a1.678,1.678,0,0,0,1.378-.567,1.7,1.7,0,0,0,.386-1.2V-79.722h36.368a1.267,1.267,0,0,0,.853-.277,1.119,1.119,0,0,0,.329-.9v-1.543a1.132,1.132,0,0,0-.329-.9,1.305,1.305,0,0,0-.853-.277H122.3a1.678,1.678,0,0,0-1.371.573M136.8-77.077c-6.042,0-9.436,4.7-9.436,9.662,0,5.291,3.641,9.945,9.481,9.945a9.8,9.8,0,0,0,7.395-3.023,5.119,5.119,0,0,0,1.264-2.7.886.886,0,0,0-.19-.63.842.842,0,0,0-.714-.277h-2.8a1.348,1.348,0,0,0-1.22.63,4.176,4.176,0,0,1-3.748,1.82A4.329,4.329,0,0,1,132.41-65.8h12.167a1.565,1.565,0,0,0,1.182-.384,1.772,1.772,0,0,0,.436-1.423,10.125,10.125,0,0,0-2.25-6.4,8.891,8.891,0,0,0-7.155-3.055m18.683,0c-4.772,0-7.907,2.255-7.907,5.864a4.445,4.445,0,0,0,1.264,3.149,7.8,7.8,0,0,0,4.007,2.085l3.982,1.008c1.1.277,2.073.63,2.073,1.562,0,1.474-1.567,1.978-3.236,1.978a5.426,5.426,0,0,1-2.37-.5,2.993,2.993,0,0,1-1.2-1.058c-.259-.4-.348-.693-.746-.92a1.9,1.9,0,0,0-.942-.157h-2.162a.994.994,0,0,0-.853.328,1.256,1.256,0,0,0-.209.75A4.073,4.073,0,0,0,148-60.632c1.321,1.77,4.089,3.193,7.622,3.193s8.305-1.442,8.305-6.091a4.87,4.87,0,0,0-1.018-3.067,6.688,6.688,0,0,0-3.969-2.293l-3.95-1.008c-1.637-.416-2.4-.712-2.4-1.713s.866-1.751,2.888-1.751a3.978,3.978,0,0,1,2.971,1c.575.63.474.913.923,1.159a2.4,2.4,0,0,0,1.081.139h1.966a.874.874,0,0,0,.714-.239,1.162,1.162,0,0,0,.228-.8,4.242,4.242,0,0,0-1.637-2.948,9.541,9.541,0,0,0-6.232-2m10.846.661h-.973a1.267,1.267,0,0,0-.853.277,1.119,1.119,0,0,0-.329.9v1.2a1.119,1.119,0,0,0,.329.9,1.267,1.267,0,0,0,.853.277h.973v8.66a6.123,6.123,0,0,0,1.744,4.718c1.112,1.109,2.4,1.663,4.766,1.663h1.485a1.267,1.267,0,0,0,.847-.277,1.138,1.138,0,0,0,.367-.9v-1.512a1.138,1.138,0,0,0-.367-.9,1.3,1.3,0,0,0-.847-.277h-.209a2.8,2.8,0,0,1-2.023-.63,2.891,2.891,0,0,1-.784-2.2v-8.345h3.16a1.267,1.267,0,0,0,.853-.277,1.125,1.125,0,0,0,.335-.9v-1.2a1.125,1.125,0,0,0-.335-.9,1.267,1.267,0,0,0-.853-.277h-3.16v-5.669a1.6,1.6,0,0,0-.329-1.008,1.437,1.437,0,0,0-1.169-.5h-1.966a1.437,1.437,0,0,0-1.15.5,1.6,1.6,0,0,0-.348,1.039Zm10.656,17.05a1.609,1.609,0,0,0,.348,1.046,1.431,1.431,0,0,0,1.169.5h2.1a1.431,1.431,0,0,0,1.169-.5,1.609,1.609,0,0,0,.348-1.046V-82.053a1.609,1.609,0,0,0-.379-1.02,1.431,1.431,0,0,0-1.169-.5H178.5a1.431,1.431,0,0,0-1.169.5,1.609,1.609,0,0,0-.348,1.046ZM132.467-69.462a4.42,4.42,0,0,1,4.355-3.63,4.42,4.42,0,0,1,4.355,3.63Zm68.475-10.254a1.267,1.267,0,0,0,.853-.277,1.125,1.125,0,0,0,.335-.9v-1.612a1.552,1.552,0,0,0-.335-1.165,1.152,1.152,0,0,0-.853-.328,8.583,8.583,0,0,0-1.024.088l-13.9,1.367a.937.937,0,0,0-.714.3.93.93,0,0,0-.246.731v.9a.867.867,0,0,0,.19.63.906.906,0,0,0,.7.258Zm-7.7,2.658c-6.042,0-9.436,4.7-9.436,9.662,0,5.291,3.634,9.945,9.481,9.945a9.818,9.818,0,0,0,7.4-3.023,5.119,5.119,0,0,0,1.264-2.7.861.861,0,0,0-.2-.63.836.836,0,0,0-.714-.277H198.3a1.354,1.354,0,0,0-1.22.63,4.17,4.17,0,0,1-3.742,1.82,4.342,4.342,0,0,1-4.424-4.144h12.154a1.571,1.571,0,0,0,1.182-.384,1.772,1.772,0,0,0,.436-1.423,10.124,10.124,0,0,0-2.212-6.431,8.968,8.968,0,0,0-7.186-3.055m-4.336,7.6a4.42,4.42,0,0,1,4.352-3.613,4.42,4.42,0,0,1,4.352,3.613Z" transform="translate(-103.945 84)"/></clipPath><clipPath id="cc"><path class="a" d="M73.518-47.986h-1.9l-5.631-9.7a.341.341,0,0,0-.3-.176H62.274l2.762-4.749a.361.361,0,0,1,.322-.189h8.16a.361.361,0,0,1,.3.17l4.1,7.067a.358.358,0,0,1,0,.34l-4.1,7.1a.348.348,0,0,1-.3.17" transform="translate(-62.274 62.8)"/></clipPath><clipPath id="ce"><path class="a" d="M17.227-13.826H12.266a.3.3,0,0,1-.246-.139L9.535-18.247a.283.283,0,0,1,0-.283L12-22.82a.278.278,0,0,1,.246-.139h4.962a.278.278,0,0,1,.246.139l.417.712-.885,1.531-1.1,1.89a.314.314,0,0,0-.044.17.37.37,0,0,0,.032.145h0l2.054,3.54L17.442-14a.3.3,0,0,1-.246.139" transform="translate(-9.497 22.958)"/></clipPath><clipPath id="cg"><path class="a" d="M5.911-31.284H2.182a.329.329,0,0,1-.278-.157L.046-34.66a.327.327,0,0,1,0-.334l1.9-3.219a.316.316,0,0,1,.278-.157H5.949a.316.316,0,0,1,.278.157l1.9,3.219a.327.327,0,0,1,0,.321l-1.9,3.219a.329.329,0,0,1-.278.157" transform="translate(0 38.37)"/></clipPath></defs><g class="b" transform="translate(66.418 36.199)"><g class="c" transform="translate(-788.222 -159.289)"><path class="d" d="M118.025-21.949h12.9V-7.73h-12.9Z" transform="translate(667.498 178.539)"/></g></g><g class="e" transform="translate(74.905 36.194)"><g class="c" transform="translate(-796.71 -159.284)"><path class="d" d="M133.746-21.958H146.18V-7.726H133.746Z" transform="translate(660.264 178.543)"/></g></g><g class="f" transform="translate(83.69 32.936)"><g class="c" transform="translate(-805.495 -156.026)"><path class="d" d="M150.02-27.993h8.66v17.372h-8.66Z" transform="translate(652.776 181.32)"/></g></g><g class="g" transform="translate(87.52 33.811)"><g class="c" transform="translate(-809.325 -156.902)"><path class="d" d="M157.114-26.372h9.6v16.5h-9.6Z" transform="translate(649.512 180.574)"/></g></g><g class="h" transform="translate(93.247 32.936)"><g class="c" transform="translate(-815.051 -156.026)"><path class="d" d="M167.721-27.993h12.528v17.271H167.721Z" transform="translate(644.631 181.32)"/></g></g><g class="i" transform="translate(101.135 32.765)"><g class="c" transform="translate(-822.939 -155.855)"><path class="j" d="M182.332-28.31h14.342v17.65H182.332Z" transform="translate(637.908 181.465)"/></g></g><g class="k" transform="translate(111.102 36.189)"><g class="c" transform="translate(-832.907 -159.279)"><path class="j" d="M200.794-21.967H212.92V-7.788H200.794Z" transform="translate(629.413 178.547)"/></g></g><g class="l" transform="translate(119.179 32.917)"><g class="c" transform="translate(-840.984 -156.007)"><path class="j" d="M215.756-28.028h7.358v17.29h-7.358Z" transform="translate(622.529 181.336)"/></g></g><g class="m" transform="translate(122.54 36.202)"><g class="c" transform="translate(-844.344 -159.292)"><path class="j" d="M221.98-21.944h12.89V-7.728H221.98Z" transform="translate(619.665 178.536)"/></g></g><g class="n" transform="translate(131.447 36.178)"><g class="c" transform="translate(-853.252 -159.268)"><path class="j" d="M238.48-21.987h12.5V-7.952h-12.5Z" transform="translate(612.073 178.556)"/></g></g><g class="o" transform="translate(139.86 36.189)"><g class="c" transform="translate(-861.664 -159.28)"><path class="j" d="M254.062-21.967h12.126V-7.788H254.062Z" transform="translate(604.903 178.547)"/></g></g><g class="p" transform="translate(147.48 36.202)"><g class="c" transform="translate(-869.285 -159.292)"><path class="j" d="M268.177-21.944h12.89V-7.728h-12.89Z" transform="translate(598.408 178.536)"/></g></g><g class="q" transform="translate(24.304 30.057)"><g class="c" transform="translate(-746.108 -153.148)"><path class="r" d="M40.018-33.325h8.154v10.091H40.018Z" transform="translate(703.391 183.773)"/></g></g><g class="s" transform="translate(27.104 37.49)"><g class="c" transform="translate(-748.908 -160.58)"><path class="r" d="M45.2-19.558h6.827v7.887H45.2Z" transform="translate(701.005 177.439)"/></g></g><g class="t" transform="translate(23.495 39.858)"><g class="c" transform="translate(-745.299 -162.948)"><path class="r" d="M38.519-15.172h5.5v5.481h-5.5Z" transform="translate(704.081 175.42)"/></g></g><g class="u" transform="translate(32.236 16.383)"><g class="c" transform="translate(-754.04 -139.474)"><path class="v" d="M54.71-58.653H70.816v15.275H54.71Z" transform="translate(696.631 195.427)"/></g></g><g class="u" transform="translate(32.236 16.383)"><g class="c" transform="translate(-754.04 -139.474)"><path class="w" d="M54.71-58.653H70.816v15.275H54.71Z" transform="translate(696.631 195.427)"/></g></g><g class="x" transform="translate(17.768 30.001)"><g class="c" transform="translate(-739.573 -153.091)"><path class="j" d="M27.912-33.43H39.037v15.256H27.912Z" transform="translate(708.961 183.821)"/></g></g><g class="y" transform="translate(28.532 37.238)"><g class="c" transform="translate(-750.337 -160.328)"><path class="j" d="M47.85-20.025h5.425v5.651H47.85Z" transform="translate(699.787 177.653)"/></g></g><g class="z" transform="translate(27.059 34.75)"><g class="c" transform="translate(-748.864 -157.84)"><path class="j" d="M45.122-24.633h6.827v7.88H45.122Z" transform="translate(701.043 179.774)"/></g></g><g class="aa" transform="translate(24.108 29.994)"><g class="c" transform="translate(-745.912 -153.085)"><path class="j" d="M39.655-33.442h5.595v5.468H39.655Z" transform="translate(703.558 183.827)"/></g></g><g class="ab" transform="translate(17.743 29.969)"><g class="c" transform="translate(-739.548 -153.059)"><path class="j" d="M27.865-33.488H44.035v15.407H27.865Z" transform="translate(708.983 183.848)"/></g></g><g class="ac" transform="translate(32.255 18.941)"><g class="c" transform="translate(-754.059 -142.031)"><path class="d" d="M54.745-53.917H64.3v12.585H54.745Z" transform="translate(696.615 193.248)"/></g></g><g class="ad" transform="translate(36.508 26.215)"><g class="c" transform="translate(-758.313 -149.306)"><path class="d" d="M62.624-40.442h5.569V-35H62.624Z" transform="translate(692.989 187.048)"/></g></g><g class="ae" transform="translate(13.9 34.473)"><g class="c" transform="translate(-735.705 -157.563)"><path class="r" d="M20.747-25.147h7.124V-16.7H20.747Z" transform="translate(712.258 180.01)"/></g></g><g class="af" transform="translate(11.536 37.571)"><g class="c" transform="translate(-733.341 -160.662)"><path class="r" d="M16.369-19.407h9.065v8.945H16.369Z" transform="translate(714.273 177.369)"/></g></g><g class="ag" transform="translate(12.636 33.805)"><g class="c" transform="translate(-734.441 -156.895)"><path class="r" d="M18.406-26.383H24.69v6.929H18.406Z" transform="translate(713.336 180.579)"/></g></g><g class="ah" transform="translate(15.215 37.521)"><g class="c" transform="translate(-737.02 -160.611)"><path class="j" d="M23.183-19.5H29v6.2H23.183Z" transform="translate(711.138 177.412)"/></g></g><g class="ai" transform="translate(13.521 33.811)"><g class="c" transform="translate(-735.326 -156.902)"><path class="j" d="M20.045-26.372h5.778v6.06H20.045Z" transform="translate(712.581 180.574)"/></g></g><g class="aj" transform="translate(11.498 35.342)"><g class="c" transform="translate(-733.303 -158.432)"><path class="j" d="M16.3-23.537h6.536v7.6H16.3Z" transform="translate(714.305 179.269)"/></g></g><g class="ak" transform="translate(11.498 33.843)"><g class="c" transform="translate(-733.303 -156.933)"><path class="j" d="M16.3-26.313h9.539v12.642H16.3Z" transform="translate(714.305 180.547)"/></g></g><g class="al" transform="translate(13.496 30.051)"><g class="c" transform="translate(-735.3 -153.141)"><path class="w" d="M20-33.337H38.979v20.213H20Z" transform="translate(712.603 183.779)"/></g></g><g class="am" transform="translate(23.596 39.94)"><g class="c" transform="translate(-745.4 -163.03)"><path class="j" d="M38.706-15.02h5.557v5.436H38.706Z" transform="translate(703.995 175.35)"/></g></g><g class="an" transform="translate(15.215 37.66)"><g class="c" transform="translate(-737.02 -160.75)"><path class="j" d="M23.183-19.243h5.784v6.066H23.183Z" transform="translate(711.138 177.294)"/></g></g><g class="ao" transform="translate(16.747 16.389)"><g class="c" transform="translate(-738.552 -139.48)"><path class="w" d="M26.021-58.642H58.674v28.987H26.021Z" transform="translate(709.832 195.422)"/></g></g><g class="ap" transform="translate(32.236 16.383)"><g class="c" transform="translate(-754.04 -139.474)"><path class="v" d="M54.71-58.653h6.783v7.868H54.71Z" transform="translate(696.631 195.427)"/></g></g><g class="ap" transform="translate(32.236 16.383)"><g class="c" transform="translate(-754.04 -139.474)"><path class="w" d="M54.71-58.653h6.783v7.868H54.71Z" transform="translate(696.631 195.427)"/></g></g><g class="aq" transform="translate(32.236 16.39)"><g class="c" transform="translate(-754.04 -139.48)"><path class="d" d="M54.71-58.642H70.784v15.3H54.71Z" transform="translate(696.631 195.422)"/></g></g><g class="ar" transform="translate(56.095 32.936)"><g class="c" transform="translate(-777.9 -156.026)"><path class="d" d="M98.905-27.993h14.279v17.271H98.905Z" transform="translate(676.295 181.32)"/></g></g><g class="as" transform="translate(56.117 0)"><g class="c" transform="translate(-777.921 -123.09)"><path class="at" d="M98.945-89H203.1v31.96H98.945Z" transform="translate(676.277 209.391)"/></g></g><g class="au" transform="translate(33.62 11.445)"><g class="c" transform="translate(-755.425 -134.536)"><path class="av" d="M57.274-67.8H78.353v20.244H57.274Z" transform="translate(695.451 199.636)"/></g></g><g class="aw" transform="translate(5.127 32.955)"><g class="c" transform="translate(-726.932 -156.045)"><path class="w" d="M4.5-27.958h13.83v14.532H4.5Z" transform="translate(719.735 181.304)"/></g></g><g class="ax" transform="translate(0 24.634)"><g class="c" transform="translate(-721.805 -147.725)"><path class="w" d="M-5-43.37H8.564v12.485H-5Z" transform="translate(724.105 188.395)"/></g></g></svg>