<svg xmlns="http://www.w3.org/2000/svg" width="91.778" height="52.63" viewBox="0 0 91.778 52.63"><defs><style>.a{fill:#005ba9;}.b{fill:#1a1818;}</style></defs><g transform="translate(-184.252 -172.914)"><path class="a" d="M237.117,175.546a14.529,14.529,0,0,0-5.486-.795c-3.922,0-7.972,1.385-7.972,6,0,5.049,6.946,3.972,6.946,6.844,0,1.846-2.332,2.128-3.819,2.128a9.336,9.336,0,0,1-4.409-1.026l-1.128,3.64a20.032,20.032,0,0,0,5.537.923c4.153,0,8.742-1.282,8.742-6.229,0-5.435-6.947-4.486-6.947-7.024,0-1.435,1.538-1.717,3.435-1.717a9,9,0,0,1,3.948.82Zm-32.734,17.405h4.793l1.59-7.664h5.665l-1.59,7.664h4.794l3.716-17.893h-4.793l-1.409,6.845h-5.666l1.411-6.845H208.1Zm-18.582,0h4.512l2.486-12.38h.051l3.743,12.38h5.947l3.793-17.893h-4.512l-2.512,12.408h-.051l-3.666-12.408h-5.972Zm-1.55-20.037h54.921v22.228H184.252Z" transform="translate(0)"/><path class="a" d="M227.724,268.465a1.528,1.528,0,0,0,1.644,1.685,3.564,3.564,0,0,0,1-.122l-.04-1.069a1.206,1.206,0,0,1-.616.141c-.515,0-.635-.414-.635-.858v-2.421h1.2v-.988h-1.2V263.36l-1.352.434v1.039h-1v.988h1Zm-1.806-3.561a6.234,6.234,0,0,0-1.473-.192c-1.059,0-2.038.494-2.038,1.615,0,1.876,2.351,1.18,2.351,2.2,0,.5-.545.635-.888.635a2.961,2.961,0,0,1-1.331-.343l-.081,1.11a6.053,6.053,0,0,0,1.534.222c1.1,0,2.179-.484,2.179-1.7,0-1.876-2.35-1.351-2.35-2.178,0-.444.434-.575.8-.575a3.3,3.3,0,0,1,1.211.222Zm-4.687-.07h-1.352v2.542c0,.665-.212,1.725-1.19,1.725-.868,0-.878-.858-.878-1.493v-2.774h-1.352v3.278c0,1.171.535,2.038,1.765,2.038a2.168,2.168,0,0,0,1.705-.827h.02v.706h1.281Zm-8.682,5.195H213.9v-1.906c0-.747,0-2.119,1.1-2.119a1.364,1.364,0,0,1,.605.111v-1.362a1.46,1.46,0,0,0-.413-.041,1.592,1.592,0,0,0-1.423,1.3h-.02v-1.18h-1.2Zm-3.613,0h1.413V264.1h2.018v-1.109h-5.448V264.1h2.018Zm-5.982-6.91a5.329,5.329,0,0,0-1.685-.252c-1.241,0-2.462.575-2.462,2.149,0,2.33,3.087,1.775,3.087,3.117,0,.635-.716.907-1.251.907a3.4,3.4,0,0,1-1.594-.434l-.131,1.271a6.189,6.189,0,0,0,1.806.273c1.422,0,2.643-.586,2.643-2.129,0-2.36-3.087-1.846-3.087-3.066a.98.98,0,0,1,1.11-.978,3.655,3.655,0,0,1,1.433.3Zm-11.24,6.91h1.413v-3.087h2.824v3.087h1.413v-7.041h-1.413v2.845h-2.824v-2.845h-1.413Zm-7.462,0H185.6v-5.266h.02l2.694,5.266h1.725v-7.041h-1.352v5.265h-.02l-2.684-5.265h-1.735Z" transform="translate(0 -44.605)"/><path class="b" d="M274,239.426h2.031V228.077H274Zm-7.885-4.086a1.99,1.99,0,1,1,3.926,0c0,1.3-.409,2.693-1.971,2.693-1.546,0-1.955-1.407-1.955-2.693m-2.123.242a4.086,4.086,0,0,0,8.171,0,4.086,4.086,0,1,0-8.171,0m-4.844,1.5a2.294,2.294,0,0,0,2.471,2.527,5.352,5.352,0,0,0,1.5-.182l-.061-1.6a1.816,1.816,0,0,1-.925.212c-.773,0-.955-.62-.955-1.286v-3.631h1.8v-1.483h-1.8v-2.209l-2.031.65v1.559h-1.5v1.483h1.5Zm-2.829-5.342a9.392,9.392,0,0,0-2.213-.287c-1.592,0-3.062.741-3.062,2.421,0,2.814,3.532,1.77,3.532,3.3,0,.757-.819.953-1.334.953a4.466,4.466,0,0,1-2-.515l-.121,1.665a9.118,9.118,0,0,0,2.3.333c1.652,0,3.274-.726,3.274-2.542,0-2.814-3.532-2.028-3.532-3.269,0-.665.652-.862,1.2-.862a4.978,4.978,0,0,1,1.819.333Zm-9.205-1.528h2.031v-1.937h-2.031Zm0,9.215h2.031v-7.793h-2.031Zm-6.009,0h2.031v-2.86c0-1.12,0-3.178,1.653-3.178a2.078,2.078,0,0,1,.91.166v-2.043a2.227,2.227,0,0,0-.621-.06,2.39,2.39,0,0,0-2.138,1.952h-.03v-1.77h-1.8Zm-9.392,0h3.7c1.334,0,3.729-.393,3.729-3.057a2.455,2.455,0,0,0-2.426-2.406v-.03a2.359,2.359,0,0,0,2.107-2.361c0-2.315-2.047-2.708-3.411-2.708h-3.7Zm2.123-8.9h.818c.971,0,2.047.091,2.047,1.316,0,1.09-1.107,1.286-2,1.286h-.864Zm0,4.176h1c1.061,0,2.183.212,2.183,1.589,0,1.226-1.2,1.468-2.183,1.468h-1Zm-16.388,4.721h2.031v-3.813c0-1,.318-2.588,1.789-2.588,1.3,0,1.319,1.286,1.319,2.239v4.162h2.031v-4.918c0-1.755-.8-3.056-2.653-3.056a2.907,2.907,0,0,0-2.456,1.24h-.03v-4.615h-2.031Zm-5.472-2.346a2.294,2.294,0,0,0,2.471,2.527,5.35,5.35,0,0,0,1.5-.182l-.061-1.6a1.816,1.816,0,0,1-.925.212c-.773,0-.955-.62-.955-1.286v-3.631h1.8v-1.483h-1.8v-2.209l-2.032.65v1.559h-1.5v1.483h1.5Zm-7.083,2.346h2.031v-2.86c0-1.12,0-3.178,1.653-3.178a2.078,2.078,0,0,1,.91.166v-2.043a2.227,2.227,0,0,0-.621-.06,2.389,2.389,0,0,0-2.138,1.952h-.03v-1.77h-1.8Zm-7.866-4.086a1.99,1.99,0,1,1,3.926,0c0,1.3-.409,2.693-1.971,2.693-1.546,0-1.955-1.407-1.955-2.693m-2.123.242a4.086,4.086,0,0,0,8.171,0,4.086,4.086,0,1,0-8.171,0m-10.651,3.844h2.031v-7.9h.03l4.048,7.9h2.592V228.864h-2.031v7.9h-.03l-4.033-7.9h-2.608Z" transform="translate(0 -27.348)"/></g></svg>