<svg xmlns="http://www.w3.org/2000/svg" xmlns:xlink="http://www.w3.org/1999/xlink" width="186" height="30.415" viewBox="0 0 186 30.415"><defs><style>.a{fill:url(#a);}.b{fill:#004f9b;}</style><linearGradient id="a" y1="0.5" x2="1" y2="0.5" gradientUnits="objectBoundingBox"><stop offset="0.3" stop-color="#dd3319"/><stop offset="0.7" stop-color="#ea8610"/></linearGradient></defs><g transform="translate(-160.813 -540.267)"><path class="a" d="M179.415,552.492l-.077.191a7.718,7.718,0,0,1,4.089,7.179,8.672,8.672,0,0,1-9.033,8.367c-6.871,0-9.239-4.014-9.239-7.7,0-4.728,3.305-7.88,3.305-12.184a6.731,6.731,0,0,0-5.3-6.5l-.114.193a5.584,5.584,0,0,1,1.691,4.036c0,4.649-3.92,7.955-3.92,13.3,0,4.921,3.44,9.931,13.39,9.931,8.87,0,13.547-4.342,13.547-8.969C187.75,556.375,184.9,553.019,179.415,552.492Z" transform="translate(0 1.38)"/><path class="b" d="M213.355,569.892l-11.792-15.206v13.7l2.407.575v.647h-5.486v-.647l1.963-.575V553.462a4.2,4.2,0,0,0-1.695-.958c-.238-.052-.564-.1-.564-.1v-.643h4.653l10.1,13.1V552.978l-2.405-.577v-.645h5.484v.645l-1.963.577v13.594c0,1.241.088,3.09.105,3.32Zm24.655-9.679c0,6.318-4.383,9.949-9.224,9.949a9.484,9.484,0,0,1-.026-18.96A8.97,8.97,0,0,1,238.01,560.213Zm-3.065.941c0-4.625-2.771-9.117-6.535-9.117-4.006,0-5.808,3.873-5.808,8.015,0,4.113,2.285,9.276,6.588,9.276C233.224,569.328,234.945,565.241,234.945,561.154Zm6.877-8.176-1.879-.577v-.645h7.235v.645l-2.265.576,4.994,13.613h.028l4.994-13.611-2.265-.577v-.645h5.352v.645l-1.864.577-6.331,16.955h-1.6Zm42.743,7.516h-1.147v-7.8c3.808,0,6.024.866,6.024,3.954C289.441,558.942,287.461,560.494,284.565,560.494Zm32.366,8.47,2.5-.575V552.976l-2.5-.576v-.645h7.853v.643l-2.5.578v15.412l2.5.575v.647h-7.855Zm12.66-4.271h.495l1.669,3.841a7.481,7.481,0,0,0,3.195.793c2.162,0,4.143-1.29,4.143-3.513,0-1.714-1.106-2.735-2.906-3.671l-1.774-.92c-2.124-1.106-4.243-2.666-4.243-5.176,0-2.73,1.92-4.844,5.934-4.844a13.927,13.927,0,0,1,4.181.69l.42,4.132h-.538l-1.545-3.313a5.339,5.339,0,0,0-2.585-.675c-2.044,0-3.438,1.26-3.438,3,0,1.582,1.05,2.576,2.85,3.508.666.345,1.406.731,2.105,1.093,2.87,1.487,4.231,2.863,4.231,5.414,0,3.151-2.951,5.107-6.62,5.107a15.832,15.832,0,0,1-5.1-.759Zm-72.781,4.271,2.023-.575,6.239-16.637,2.085-.534,6.444,17.171,2.021.575v.647h-7.647v-.647l2.587-.575-1.826-4.936h-6.862l-1.815,4.936,2.589.575v.647h-5.838Zm5.529-6.83h5.939l-2.949-7.96H265.3Zm25.819-1.254c.615-.158,4.16-1.059,4.16-4.436,0-2.688-2.06-4.771-7.132-4.771-3.133,0-6.3.071-6.691.081v.643l2.072.581v15.409l-2.072.577v.645h7.328v-.643l-2.407-.577v-6.967h2.072l5.3,8.187h4.689v-.619l-2.373-.6Zm15.472-8.185v15.694l-2.5.575v.647h7.852v-.647l-2.5-.575V552.695h4.235l1.393,2.981h.538l-.4-3.92H297.868l-.4,3.92H298l1.387-2.981ZM169.291,564.058l2.5-23.791h-5.227l2.5,23.791Z" transform="translate(5.028)"/></g></svg>