<svg xmlns="http://www.w3.org/2000/svg" width="60.398" height="60.398" viewBox="0 0 60.398 60.398"><defs><style>.a{fill:#141e8c;}.b{fill:#fff;}</style></defs><path class="a" d="M131.3,131.3a73.62,73.62,0,0,0-60.4,0V70.9h60.4Z" transform="translate(-70.9 -70.9)"/><g transform="translate(2.291 16.879)"><path class="b" d="M81.229,111.907a3.057,3.057,0,0,0-3.069,2.856H76.8V110.5H87.367a10.73,10.73,0,0,1-3.026,6.777s-2.984,3.453-3.069,4.987h1.7c2.472,0,2.728-2.856,2.728-2.856h1.407v4.262H76.285s-.384-3.239,3.367-7.161a14.958,14.958,0,0,0,2.856-4.6Z" transform="translate(-76.274 -110.5)"/><path class="b" d="M141.59,123.671v-1.407h-.341a1.055,1.055,0,0,1-1.066-1.066v-8.226a1.055,1.055,0,0,1,1.066-1.066h.341V110.5H134.6v1.407h.341a1.055,1.055,0,0,1,1.066,1.066V121.2a1.055,1.055,0,0,1-1.066,1.066H134.6v1.407Z" transform="translate(-109.739 -110.5)"/><path class="b" d="M116.167,123.728v-4.262h-1.407s-.256,2.9-2.728,2.9h-1.407v-4.475h.511a1.055,1.055,0,0,1,1.066,1.066v.511h1.407v-4.6H112.2v.554a1.055,1.055,0,0,1-1.066,1.066h-.511v-4.475h1.407c2.472,0,2.728,2.856,2.728,2.856h1.407V110.6H105v1.407h.341a1.055,1.055,0,0,1,1.066,1.066V121.3a1.055,1.055,0,0,1-1.066,1.066H105v1.407Z" transform="translate(-92.756 -110.557)"/><path class="b" d="M160.271,111.907a3.057,3.057,0,0,1,3.069,2.856H164.7V110.5H154.6s-1.577,2.089,2.557,6.777c0,0,2.984,3.453,3.026,4.987h-1.7c-2.472,0-2.728-2.856-2.728-2.856h-1.407v4.262h10.187s1.833-2-2.728-7.161c0,0-2.387-2.472-2.856-4.6Z" transform="translate(-121.047 -110.5)"/><path class="b" d="M187.953,111.907a3.1,3.1,0,0,1,3.069,2.856h1.364V110.5h-10.1s-1.62,2.089,2.557,6.777c0,0,2.984,3.453,3.026,4.987h-1.7c-2.472,0-2.728-2.856-2.728-2.856h-1.407v4.262h10.187s1.833-2-2.728-7.161c0,0-2.387-2.472-2.856-4.6Z" transform="translate(-136.922 -110.5)"/></g></svg>