<svg xmlns="http://www.w3.org/2000/svg" width="922.736" height="996.156" viewBox="0 0 922.736 996.156">
  <defs>
    <style>
      .cls-1 {
        fill: #be1e2d;
      }

      .cls-2 {
        fill: #ec1c24;
      }
    </style>
  </defs>
  <g id="Group_20" data-name="Group 20" transform="translate(-118.688 -137.207)">
    <path id="Path_102" data-name="Path 102" class="cls-1" d="M272.479,264.024H118.726L519.551,722.9V545.164Z" transform="translate(0.125 410.459)"/>
    <path id="Path_103" data-name="Path 103" class="cls-1" d="M490.738,595.467l152.361-.011L241.892,137.215l-.213,176.8Z" transform="translate(398.078 0.027)"/>
    <path id="Path_104" data-name="Path 104" class="cls-2" d="M525.825,666.362c-13.167,6.885-31.436,8.122-31.436,8.122H118.851l-.131-85.33s-.915-7.562,7.067-14.472c7.444-6.41,14.379-7.041,14.379-7.041l379.576-.063-.068-407.6a36.763,36.763,0,0,1,10.761-16.48,26.1,26.1,0,0,1,15.7-6.291l93.833.034-.212,397.235s.678,13.816-2.457,23.551c-2.822,8.791-12.163,18.137-12.163,18.137L550.72,647.348s-12.794,13.324-24.894,19.014" transform="translate(0 0)"/>
    <path id="Path_105" data-name="Path 105" class="cls-2" d="M333.959,249.635c10.024-4.7,29.449-4.232,29.449-4.232l371.433-.025.246,84.427s.208,7.5-7.791,14.413a37.111,37.111,0,0,1-14.413,8l-379.462.051.246,405.971s-.979,11.257-9.138,18.162a28.966,28.966,0,0,1-15.667,6.855H213.338V384.088s-.242-14.235,2.894-23.95c2.839-8.791,12.18-18.154,12.18-18.154L313.9,262.95a74.021,74.021,0,0,1,19.51-13.121Z" transform="translate(306.335 350.106)"/>
  </g>
</svg>
