<svg xmlns="http://www.w3.org/2000/svg" width="256.123" height="64.395" viewBox="0 0 256.123 64.395">
  <defs>
    <style>
      .cls-1 {
        fill: #fff;
      }

      .cls-2 {
        fill: #ededed;
      }

      .cls-3 {
        fill: #be202e;
      }

      .cls-4 {
        fill: #eb2227;
      }

      .cls-5 {
        fill: #ec1c24;
      }

      .cls-6 {
        fill: #be1e2d;
      }
    </style>
  </defs>
  <g id="MedTrix_nxt_logo" transform="translate(-288.114 -312.441)">
    <g id="Group_7" data-name="Group 7" transform="translate(361.442 323.863)">
      <g id="Group_5" data-name="Group 5" transform="translate(1.352 0)">
        <path id="Path_63" data-name="Path 63" class="cls-1" d="M819.028,449.984c0-1.779-.035-3.238-.142-4.661h2.74l.142,2.775h.107a5.935,5.935,0,0,1,5.408-3.167,5.09,5.09,0,0,1,4.874,3.451h.071a7.094,7.094,0,0,1,1.921-2.242,5.876,5.876,0,0,1,3.807-1.21c2.277,0,5.657,1.494,5.657,7.472v10.14h-3.06V452.8c0-3.309-1.21-5.3-3.736-5.3a4.053,4.053,0,0,0-3.7,2.847,5.159,5.159,0,0,0-.249,1.565v10.638h-3.06V452.226c0-2.74-1.21-4.732-3.594-4.732a4.667,4.667,0,0,0-4.127,4.661v10.389h-3.06Z" transform="translate(-818.886 -437.282)"/>
        <path id="Path_64" data-name="Path 64" class="cls-1" d="M1024.938,454.5c.071,4.234,2.775,5.977,5.906,5.977a11.323,11.323,0,0,0,4.768-.89l.534,2.242a13.825,13.825,0,0,1-5.728,1.1c-5.3,0-8.468-3.522-8.468-8.717s3.06-9.286,8.077-9.286c5.622,0,7.116,4.946,7.116,8.112a11.842,11.842,0,0,1-.107,1.459Zm9.18-2.242c.036-1.992-.818-5.088-4.341-5.088-3.167,0-4.554,2.918-4.8,5.088Z" transform="translate(-993.378 -437.282)"/>
        <path id="Path_65" data-name="Path 65" class="cls-1" d="M1164.755,390.565v20.814c0,1.53.036,3.273.142,4.447h-2.811l-.142-2.989h-.071a6.37,6.37,0,0,1-5.871,3.38c-4.163,0-7.365-3.522-7.365-8.753-.035-5.728,3.522-9.251,7.721-9.251a5.758,5.758,0,0,1,5.195,2.633h.071V390.565Zm-3.131,15.05a5.518,5.518,0,0,0-.142-1.317,4.6,4.6,0,0,0-4.519-3.629c-3.238,0-5.159,2.846-5.159,6.654,0,3.487,1.708,6.369,5.088,6.369a4.707,4.707,0,0,0,4.59-3.736,5.429,5.429,0,0,0,.142-1.352Z" transform="translate(-1102.24 -390.565)"/>
        <path id="Path_66" data-name="Path 66" class="cls-1" d="M1291.933,418.38v4.127h4.483v2.384h-4.483v9.286c0,2.135.6,3.345,2.348,3.345a5.844,5.844,0,0,0,1.815-.214l.142,2.348a7.542,7.542,0,0,1-2.775.463,4.358,4.358,0,0,1-3.38-1.352c-.89-.925-1.21-2.455-1.21-4.483v-9.393H1286.2v-2.384h2.668v-3.167Z" transform="translate(-1220.453 -414.466)"/>
        <path id="Path_67" data-name="Path 67" class="cls-1" d="M1382.944,450.7c0-2.028-.035-3.771-.142-5.373h2.74l.107,3.38h.142a5.166,5.166,0,0,1,4.768-3.772,3.388,3.388,0,0,1,.89.107v2.953a4.712,4.712,0,0,0-1.068-.107c-2.206,0-3.771,1.672-4.2,4.021a8.8,8.8,0,0,0-.142,1.459v9.18h-3.1Z" transform="translate(-1303.458 -437.282)"/>
        <path id="Path_68" data-name="Path 68" class="cls-1" d="M1468.612,401.371a1.939,1.939,0,0,1-3.878,0,1.908,1.908,0,0,1,1.957-1.957A1.858,1.858,0,0,1,1468.612,401.371Zm-3.487,22.059V406.21h3.131v17.221Z" transform="translate(-1373.862 -398.169)"/>
        <path id="Path_69" data-name="Path 69" class="cls-1" d="M1514.023,447.714l2.455,3.7c.64.961,1.174,1.85,1.743,2.811h.107c.569-1.032,1.139-1.921,1.708-2.846l2.419-3.665h3.38l-5.871,8.326,6.049,8.9h-3.558l-2.526-3.878c-.676-1-1.245-1.957-1.85-2.989h-.071c-.569,1.068-1.174,1.957-1.815,2.989l-2.49,3.878h-3.451l6.12-8.788-5.835-8.432Z" transform="translate(-1412.976 -439.673)"/>
      </g>
      <rect id="Rectangle_6" data-name="Rectangle 6" class="cls-2" width="115.742" height="0.949" transform="translate(0 29.359)"/>
      <g id="Group_6" data-name="Group 6" transform="translate(1.495 35.809)">
        <path id="Path_70" data-name="Path 70" class="cls-2" d="M824.769,651.213a4.191,4.191,0,0,1-1.7.3,2.955,2.955,0,0,1-3.167-3.163,3.147,3.147,0,0,1,3.358-3.275,3.578,3.578,0,0,1,1.527.278l-.21.657a3.017,3.017,0,0,0-1.288-.259,2.352,2.352,0,0,0-2.509,2.572,2.292,2.292,0,0,0,2.461,2.507,3.429,3.429,0,0,0,1.364-.259Z" transform="translate(-819.904 -645.071)"/>
        <path id="Path_71" data-name="Path 71" class="cls-2" d="M863.669,650.068,863,652.028h-.859l2.185-6.234h1l2.194,6.234h-.887l-.687-1.961Zm2.108-.629-.639-1.794c-.134-.407-.229-.777-.324-1.138h-.028c-.086.361-.191.749-.315,1.128l-.63,1.8Z" transform="translate(-856.2 -645.692)"/>
        <path id="Path_72" data-name="Path 72" class="cls-2" d="M901.868,646.478h-1.956v-.684h4.76v.684h-1.965v5.55h-.839Z" transform="translate(-888.655 -645.692)"/>
        <path id="Path_73" data-name="Path 73" class="cls-2" d="M935.2,650.068l-.668,1.961h-.859l2.185-6.234h1l2.194,6.234h-.887l-.687-1.961Zm2.109-.629-.639-1.794c-.134-.407-.229-.777-.324-1.138h-.029c-.086.361-.191.749-.315,1.128l-.63,1.8Z" transform="translate(-917.668 -645.692)"/>
        <path id="Path_74" data-name="Path 74" class="cls-2" d="M981.95,645.794h.84v5.559h2.748v.675H981.95Z" transform="translate(-959.15 -645.692)"/>
        <path id="Path_75" data-name="Path 75" class="cls-2" d="M1008.808,652.028v-2.645l-2.041-3.589h.954l.906,1.721c.239.472.439.851.639,1.285h.019c.172-.407.4-.814.649-1.285l.925-1.721h.935l-2.146,3.58v2.655Z" transform="translate(-980.475 -645.692)"/>
        <path id="Path_76" data-name="Path 76" class="cls-2" d="M1048.056,651.557l3.568-5.06v-.028h-3.263v-.675h4.34v.49l-3.549,5.041v.028h3.6v.675h-4.694Z" transform="translate(-1015.955 -645.692)"/>
        <path id="Path_77" data-name="Path 77" class="cls-2" d="M1092.831,645.794v6.234h-.839v-6.234Z" transform="translate(-1053.709 -645.692)"/>
        <path id="Path_78" data-name="Path 78" class="cls-2" d="M1111.656,652.028v-6.234h.916l2.051,3.154a16.682,16.682,0,0,1,1.145,2.026l.028-.009c-.076-.832-.1-1.591-.1-2.553v-2.618h.783v6.234h-.84l-2.042-3.163a17.949,17.949,0,0,1-1.192-2.081l-.029.009c.048.786.057,1.535.057,2.572v2.664Z" transform="translate(-1070.606 -645.692)"/>
        <path id="Path_79" data-name="Path 79" class="cls-2" d="M1162.232,651.357a5.977,5.977,0,0,1-1.984.342,3.366,3.366,0,0,1-2.4-.823,3.289,3.289,0,0,1,2.585-5.541,4.138,4.138,0,0,1,1.612.287l-.21.657a3.282,3.282,0,0,0-1.422-.268,2.369,2.369,0,0,0-2.585,2.507,2.314,2.314,0,0,0,2.48,2.516,2.781,2.781,0,0,0,1.107-.167v-1.859h-1.3v-.647h2.118Z" transform="translate(-1109.525 -645.298)"/>
        <path id="Path_80" data-name="Path 80" class="cls-2" d="M1225.384,645.794V648.4h3.11v-2.609h.84v6.234h-.84v-2.923h-3.11v2.923h-.84v-6.234Z" transform="translate(-1167.611 -645.692)"/>
        <path id="Path_81" data-name="Path 81" class="cls-2" d="M1275.469,649.106h-2.49v2.248h2.786v.675h-3.625v-6.234h3.482v.675h-2.643v1.97h2.49Z" transform="translate(-1208.51 -645.692)"/>
        <path id="Path_82" data-name="Path 82" class="cls-2" d="M1307.025,650.068l-.668,1.961h-.859l2.185-6.234h1l2.194,6.234h-.887l-.687-1.961Zm2.109-.629-.639-1.794c-.134-.407-.229-.777-.324-1.138h-.029c-.086.361-.191.749-.315,1.128l-.63,1.8Z" transform="translate(-1237.175 -645.692)"/>
        <path id="Path_83" data-name="Path 83" class="cls-2" d="M1353.775,645.794h.84v5.559h2.748v.675h-3.587Z" transform="translate(-1278.659 -645.692)"/>
        <path id="Path_84" data-name="Path 84" class="cls-2" d="M1379.872,646.478h-1.956v-.684h4.76v.684h-1.965v5.55h-.84Z" transform="translate(-1299.403 -645.692)"/>
        <path id="Path_85" data-name="Path 85" class="cls-2" d="M1420.994,645.794V648.4h3.11v-2.609h.84v6.234h-.84v-2.923h-3.11v2.923h-.839v-6.234Z" transform="translate(-1335.699 -645.692)"/>
        <path id="Path_86" data-name="Path 86" class="cls-2" d="M1469.976,651.213a4.192,4.192,0,0,1-1.7.3,2.955,2.955,0,0,1-3.167-3.163,3.147,3.147,0,0,1,3.358-3.275,3.578,3.578,0,0,1,1.527.278l-.21.657a3.017,3.017,0,0,0-1.288-.259,2.352,2.352,0,0,0-2.509,2.572,2.292,2.292,0,0,0,2.461,2.507,3.426,3.426,0,0,0,1.364-.259Z" transform="translate(-1374.329 -645.071)"/>
        <path id="Path_87" data-name="Path 87" class="cls-2" d="M1508.875,650.068l-.668,1.961h-.859l2.185-6.234h1l2.194,6.234h-.887l-.687-1.961Zm2.108-.629-.639-1.794c-.134-.407-.229-.777-.324-1.138h-.029c-.086.361-.191.749-.315,1.128l-.63,1.8Z" transform="translate(-1410.625 -645.692)"/>
        <path id="Path_88" data-name="Path 88" class="cls-2" d="M1555.693,645.6a8.925,8.925,0,0,1,1.593-.139,2.712,2.712,0,0,1,1.87.518,1.533,1.533,0,0,1,.506,1.184,1.653,1.653,0,0,1-1.212,1.582v.028a1.6,1.6,0,0,1,.945,1.258,10.968,10.968,0,0,0,.487,1.711h-.859a7.413,7.413,0,0,1-.42-1.489c-.191-.86-.544-1.184-1.3-1.212h-.782v2.7h-.83Zm.83,2.831h.849c.887,0,1.45-.472,1.45-1.184,0-.8-.6-1.156-1.479-1.156a3.588,3.588,0,0,0-.821.074Z" transform="translate(-1452.166 -645.41)"/>
        <path id="Path_89" data-name="Path 89" class="cls-2" d="M1598.821,649.106h-2.49v2.248h2.786v.675h-3.625v-6.234h3.482v.675h-2.643v1.97h2.49Z" transform="translate(-1486.366 -645.692)"/>
      </g>
    </g>
    <g id="Group_8" data-name="Group 8" transform="translate(288.113 312.441)">
      <path id="Path_90" data-name="Path 90" class="cls-3" d="M298.05,557.869h-9.862L313.9,587.3V575.9Z" transform="translate(-288.178 -523.408)"/>
      <path id="Path_91" data-name="Path 91" class="cls-3" d="M541.629,342.35H551.4l-25.734-29.392-.014,11.34Z" transform="translate(-492.232 -312.955)"/>
      <path id="Path_92" data-name="Path 92" class="cls-4" d="M314.228,346.883a5.985,5.985,0,0,1-2.016.521H288.124l-.009-5.473a1.14,1.14,0,0,1,.453-.929,1.815,1.815,0,0,1,.922-.451l24.346,0,0-26.144a2.357,2.357,0,0,1,.69-1.057,1.673,1.673,0,0,1,1.007-.4l6.019,0-.014,25.479a5.146,5.146,0,0,1-.158,1.511,3.663,3.663,0,0,1-.78,1.163l-4.773,4.566a6.75,6.75,0,0,1-1.6,1.22" transform="translate(-288.113 -312.942)"/>
      <path id="Path_93" data-name="Path 93" class="cls-4" d="M478.647,522.128a5.489,5.489,0,0,1,1.889-.271l23.824,0,.016,5.415a1.285,1.285,0,0,1-.5.925,2.38,2.38,0,0,1-.924.513l-24.339,0,.016,26.039a1.9,1.9,0,0,1-.586,1.165,1.858,1.858,0,0,1-1,.44H470.91v-25.6a5.8,5.8,0,0,1,.186-1.536,3.686,3.686,0,0,1,.781-1.164l5.483-5.069a4.753,4.753,0,0,1,1.252-.842Z" transform="translate(-445.19 -492.461)"/>
    </g>
    <g id="Group_14" data-name="Group 14" transform="translate(496.932 336.926)">
      <g id="Group_12" data-name="Group 12" transform="translate(0 0)">
        <g id="Group_9" data-name="Group 9" transform="translate(0 0.547)">
          <path id="Path_94" data-name="Path 94" class="cls-5" d="M1778.565,495.83a29.261,29.261,0,0,1-2.574,4.745,4.741,4.741,0,0,1-3.751,2.3v-2.9q1.19,0,2.319-1.734a28.945,28.945,0,0,0,2-3.863,27.484,27.484,0,0,1,2.6-4.776,4.282,4.282,0,0,1,7.587,0,27.467,27.467,0,0,1,2.6,4.776,29,29,0,0,0,2,3.863q1.129,1.734,2.319,1.734v2.9a4.742,4.742,0,0,1-3.751-2.3,29.284,29.284,0,0,1-2.574-4.745,32.892,32.892,0,0,0-2.027-3.893q-1.166-1.734-2.38-1.734-1.189,0-2.343,1.734A32.93,32.93,0,0,0,1778.565,495.83Z" transform="translate(-1772.24 -487.298)"/>
        </g>
        <g id="Group_10" data-name="Group 10" transform="translate(21.428 0.547)">
          <path id="Path_95" data-name="Path 95" class="cls-5" d="M1930.811,497.929a18.189,18.189,0,0,1-1.841,2.646,5.825,5.825,0,0,1-4.438,2.3v-2.9a3.681,3.681,0,0,0,2.754-1.734,25.583,25.583,0,0,0,1.955-3.118,23.776,23.776,0,0,0-1.984-3.179,3.606,3.606,0,0,0-2.725-1.734v-2.9a5.8,5.8,0,0,1,4.409,2.3,19.944,19.944,0,0,1,1.884,2.722,19.271,19.271,0,0,1,1.869-2.722,5.8,5.8,0,0,1,4.409-2.3v2.9a3.607,3.607,0,0,0-2.726,1.734,23.755,23.755,0,0,0-1.983,3.179,25.553,25.553,0,0,0,1.955,3.118,3.681,3.681,0,0,0,2.754,1.734v2.9a5.824,5.824,0,0,1-4.438-2.3A18.785,18.785,0,0,1,1930.811,497.929Z" transform="translate(-1924.532 -487.298)"/>
        </g>
        <g id="Group_11" data-name="Group 11" transform="translate(38.543)">
          <path id="Path_96" data-name="Path 96" class="cls-5" d="M2051.626,496a4.085,4.085,0,0,1-1.74,3.528l-1.5-2.433a1.365,1.365,0,0,0,.514-1.217v-9.019h-2.725v-2.9h5.337a1.221,1.221,0,0,0,1.141-.547l2.283,1.6a3.7,3.7,0,0,1-3.311,1.856Z" transform="translate(-2046.175 -483.407)"/>
        </g>
        <path id="Path_97" data-name="Path 97" class="cls-5" d="M2013.88,487.3h4.544v2.9h-4.544" transform="translate(-1979.881 -486.751)"/>
      </g>
      <g id="Group_13" data-name="Group 13" transform="translate(0 8.061)">
        <path id="Path_98" data-name="Path 98" class="cls-6" d="M1774.559,544.118q-1.129,1.734-2.319,1.734v2.9a4.741,4.741,0,0,0,3.751-2.3,29.255,29.255,0,0,0,2.574-4.745c.169-.364.329-.7.483-1.019h-2.69A26.236,26.236,0,0,1,1774.559,544.118Z" transform="translate(-1772.24 -540.696)"/>
        <path id="Path_99" data-name="Path 99" class="cls-6" d="M1876.63,541.715a29.317,29.317,0,0,0,2.574,4.745,4.742,4.742,0,0,0,3.751,2.3v-2.9q-1.189,0-2.319-1.734a26.3,26.3,0,0,1-1.8-3.422h-2.69C1876.3,541.016,1876.46,541.351,1876.63,541.715Z" transform="translate(-1861.527 -540.696)"/>
        <path id="Path_100" data-name="Path 100" class="cls-6" d="M1929.071,540.7c.056.1.111.2.169.3a25.6,25.6,0,0,1-1.955,3.118,3.682,3.682,0,0,1-2.754,1.734v2.9a5.824,5.824,0,0,0,4.438-2.3,18.183,18.183,0,0,0,1.841-2.646,18.779,18.779,0,0,0,1.855,2.646,5.823,5.823,0,0,0,4.438,2.3v-2.9a3.681,3.681,0,0,1-2.754-1.734,25.565,25.565,0,0,1-1.955-3.118c.058-.106.113-.2.169-.3Z" transform="translate(-1903.104 -540.696)"/>
        <path id="Path_101" data-name="Path 101" class="cls-6" d="M2062.409,545.107a1.365,1.365,0,0,1-.514,1.217l1.5,2.433a4.086,4.086,0,0,0,1.74-3.528V540.7h-2.725Z" transform="translate(-2021.14 -540.696)"/>
      </g>
    </g>
    <rect id="Rectangle_7" data-name="Rectangle 7" class="cls-2" width="0.949" height="63.895" transform="translate(486.584 312.941)"/>
  </g>
</svg>
