<svg id="MedTrix_logo" xmlns="http://www.w3.org/2000/svg" width="189.071" height="63.895" viewBox="0 0 189.071 63.895">
  <defs>
    <style>
      .cls-1 {
        fill: #575756;
      }

      .cls-2 {
        fill: #be1e2d;
      }

      .cls-3 {
        fill: #ec1c24;
      }
    </style>
  </defs>
  <path id="Path_32" data-name="Path 32" d="M274.961,73.392c0-1.777-.035-3.236-.141-4.66h2.739l.144,2.777h.106a5.945,5.945,0,0,1,5.408-3.166,5.092,5.092,0,0,1,4.875,3.438h.071a7.111,7.111,0,0,1,1.924-2.231,5.883,5.883,0,0,1,3.8-1.209c2.277,0,5.658,1.495,5.658,7.473V85.952h-3.06V76.2c0-3.31-1.209-5.3-3.736-5.3a4.054,4.054,0,0,0-3.7,2.845,5.2,5.2,0,0,0-.247,1.565V85.952h-3.065V75.625c0-2.739-1.212-4.731-3.6-4.731a4.277,4.277,0,0,0-3.878,3.13,4.348,4.348,0,0,0-.25,1.53V85.944h-3.054Z" transform="translate(-200.139 -49.769)"/>
  <path id="Path_33" data-name="Path 33" d="M383.018,77.911c.071,4.234,2.774,5.978,5.9,5.978A11.343,11.343,0,0,0,393.692,83l.543,2.239a13.8,13.8,0,0,1-5.728,1.1c-5.3,0-8.467-3.533-8.467-8.718s3.06-9.285,8.076-9.285c5.622,0,7.117,4.946,7.117,8.112a11.909,11.909,0,0,1-.106,1.459Zm9.179-2.242c.035-1.992-.815-5.087-4.348-5.087-3.169,0-4.554,2.919-4.8,5.087Z" transform="translate(-276.767 -49.769)"/>
  <path id="Path_34" data-name="Path 34" d="M461.676,40.19V61.006c0,1.53.035,3.261.141,4.446h-2.81l-.141-2.989h-.073a6.368,6.368,0,0,1-5.87,3.38c-4.163,0-7.364-3.533-7.364-8.753-.035-5.728,3.533-9.239,7.72-9.239a5.757,5.757,0,0,1,5.2,2.633h.071V40.19Zm-3.13,15.052a5.436,5.436,0,0,0-.144-1.318,4.6,4.6,0,0,0-4.519-3.628c-3.236,0-5.163,2.845-5.163,6.652,0,3.486,1.707,6.37,5.087,6.37a4.706,4.706,0,0,0,4.59-3.736,5.347,5.347,0,0,0,.144-1.359Z" transform="translate(-324.481 -29.269)"/>
  <path id="Path_35" data-name="Path 35" d="M522.508,54.59v4.128h4.484V61.1h-4.484v9.288c0,2.133.606,3.342,2.351,3.342a5.872,5.872,0,0,0,1.813-.212l.144,2.348a7.535,7.535,0,0,1-2.777.462,4.335,4.335,0,0,1-3.378-1.359c-.891-.927-1.212-2.446-1.212-4.484V61.1H516.78V58.718h2.669V55.552Z" transform="translate(-376.348 -39.756)"/>
  <path id="Path_36" data-name="Path 36" d="M566.941,74.1c0-2.027-.035-3.772-.141-5.372h2.739l.109,3.38h.141a5.167,5.167,0,0,1,4.766-3.772,3.426,3.426,0,0,1,.891.106V71.4a4.746,4.746,0,0,0-1.068-.106c-2.206,0-3.772,1.671-4.2,4.019a8.92,8.92,0,0,0-.141,1.459v9.179h-3.1Z" transform="translate(-412.776 -49.768)"/>
  <path id="Path_37" data-name="Path 37" d="M613.1,46.746a1.939,1.939,0,1,1-3.878,0,1.9,1.9,0,0,1,1.957-1.959,1.861,1.861,0,0,1,1.921,1.959ZM609.609,68.8V51.578h3.133V68.8Z" transform="translate(-443.666 -32.616)"/>
  <path id="Path_38" data-name="Path 38" d="M636.562,69.78l2.446,3.7c.641.959,1.174,1.851,1.745,2.81h.106c.571-1.03,1.139-1.921,1.709-2.845l2.418-3.666h3.381l-5.87,8.326L648.543,87h-3.549l-2.527-3.878c-.674-.995-1.245-1.957-1.848-2.989h-.073c-.568,1.068-1.174,1.957-1.812,2.989L636.241,87H632.79l6.12-8.788-5.834-8.424Z" transform="translate(-460.834 -50.818)"/>
  <rect id="Rectangle_2" data-name="Rectangle 2" class="cls-1" width="115.744" height="0.948" transform="translate(73.327 40.28)"/>
  <path id="Path_39" data-name="Path 39" class="cls-1" d="M280.214,178.1a4.22,4.22,0,0,1-1.7.3,2.954,2.954,0,0,1-3.166-3.163,3.143,3.143,0,0,1,3.356-3.275,3.57,3.57,0,0,1,1.527.272l-.209.658a2.99,2.99,0,0,0-1.288-.272,2.352,2.352,0,0,0-2.508,2.573,2.29,2.29,0,0,0,2.459,2.505,3.408,3.408,0,0,0,1.359-.258Z" transform="translate(-200.525 -125.23)"/>
  <path id="Path_40" data-name="Path 40" class="cls-1" d="M298.744,176.615l-.666,1.959h-.859l2.174-6.234h1l2.2,6.234h-.889l-.687-1.959Zm2.109-.63-.639-1.794c-.133-.408-.228-.777-.323-1.139h-.03c-.084.361-.19.75-.315,1.13l-.628,1.8Z" transform="translate(-216.452 -125.508)"/>
  <path id="Path_41" data-name="Path 41" class="cls-1" d="M318.756,173.025H316.8v-.685h4.761v.685H319.6v5.549h-.84Z" transform="translate(-230.712 -125.508)"/>
  <path id="Path_42" data-name="Path 42" class="cls-1" d="M335.777,176.615l-.668,1.959h-.859l2.174-6.234h1.019l2.2,6.234h-.889l-.688-1.959Zm2.109-.63-.639-1.794c-.133-.408-.228-.777-.323-1.139H336.9c-.087.361-.19.75-.315,1.13l-.63,1.8Z" transform="translate(-243.42 -125.508)"/>
  <path id="Path_43" data-name="Path 43" class="cls-1" d="M359.25,172.34h.84v5.56h2.747v.674H359.25Z" transform="translate(-261.626 -125.508)"/>
  <path id="Path_44" data-name="Path 44" class="cls-1" d="M374.141,178.574V175.93l-2.041-3.59h.954l.9,1.72c.239.473.44.853.641,1.285h.019c.171-.4.4-.815.647-1.285l.927-1.72h.935l-2.147,3.582v2.652Z" transform="translate(-270.984 -125.508)"/>
  <path id="Path_45" data-name="Path 45" class="cls-1" d="M393.48,178.1l3.568-5.06v-.027h-3.261v-.677h4.348v.492l-3.56,5.041v.027h3.6v.674H393.48Z" transform="translate(-286.554 -125.508)"/>
  <path id="Path_46" data-name="Path 46" class="cls-1" d="M417.07,172.34v6.234h-.84V172.34Z" transform="translate(-303.122 -125.508)"/>
  <path id="Path_47" data-name="Path 47" class="cls-1" d="M426.41,178.574V172.34h.916l2.052,3.168a16.745,16.745,0,0,1,1.144,2.025h.027c-.076-.832-.1-1.59-.1-2.552v-2.62h.783V178.6h-.84l-2.041-3.163a17.879,17.879,0,0,1-1.193-2.082h-.027c.046.785.057,1.535.057,2.571v2.663Z" transform="translate(-310.536 -125.508)"/>
  <path id="Path_48" data-name="Path 48" class="cls-1" d="M455.139,178.141a5.979,5.979,0,0,1-1.986.342,3.39,3.39,0,0,1-2.4-.815,3.289,3.289,0,0,1,2.584-5.541,4.1,4.1,0,0,1,1.612.288l-.209.658a3.262,3.262,0,0,0-1.421-.272,2.367,2.367,0,0,0-2.584,2.505,2.324,2.324,0,0,0,2.481,2.516,2.782,2.782,0,0,0,1.106-.166V175.8h-1.3v-.649h2.12Z" transform="translate(-327.607 -125.352)"/>
  <path id="Path_49" data-name="Path 49" class="cls-1" d="M485.75,172.34v2.609h3.109V172.34h.84v6.234h-.84v-2.921H485.75v2.921h-.84V172.34Z" transform="translate(-353.139 -125.508)"/>
  <path id="Path_50" data-name="Path 50" class="cls-1" d="M512.829,175.653H510.34V177.9h2.785v.674H509.5V172.34h3.484v.677H510.34v1.97h2.489Z" transform="translate(-371.047 -125.508)"/>
  <path id="Path_51" data-name="Path 51" class="cls-1" d="M528.3,176.615l-.669,1.959h-.859l2.174-6.234h1l2.2,6.234h-.889l-.688-1.959Zm2.109-.63-.639-1.794c-.133-.408-.228-.777-.323-1.139h-.03c-.087.361-.19.75-.315,1.13l-.636,1.8Z" transform="translate(-383.624 -125.508)"/>
  <path id="Path_52" data-name="Path 52" class="cls-1" d="M551.77,172.34h.84v5.56h2.756v.674h-3.587Z" transform="translate(-401.83 -125.508)"/>
  <path id="Path_53" data-name="Path 53" class="cls-1" d="M566.227,173.025H564.27v-.685h4.761v.685h-1.965v5.549h-.84Z" transform="translate(-410.933 -125.508)"/>
  <path id="Path_54" data-name="Path 54" class="cls-1" d="M586.98,172.34v2.609h3.109V172.34h.84v6.234h-.84v-2.921H586.98v2.921h-.84V172.34Z" transform="translate(-426.86 -125.508)"/>
  <path id="Path_55" data-name="Path 55" class="cls-1" d="M614.284,178.1a4.221,4.221,0,0,1-1.7.3,2.954,2.954,0,0,1-3.166-3.163,3.143,3.143,0,0,1,3.356-3.275,3.571,3.571,0,0,1,1.527.272l-.209.658a2.989,2.989,0,0,0-1.288-.272,2.352,2.352,0,0,0-2.508,2.573,2.29,2.29,0,0,0,2.459,2.505,3.408,3.408,0,0,0,1.359-.258Z" transform="translate(-443.814 -125.23)"/>
  <path id="Path_56" data-name="Path 56" class="cls-1" d="M632.815,176.615l-.666,1.959h-.859l2.174-6.234h1.008l2.2,6.234h-.889l-.685-1.959Zm2.109-.63-.639-1.794c-.133-.408-.228-.777-.323-1.139h-.033c-.084.361-.19.75-.315,1.13l-.628,1.8Z" transform="translate(-459.741 -125.508)"/>
  <path id="Path_57" data-name="Path 57" class="cls-1" d="M656.32,172.309a9.065,9.065,0,0,1,1.592-.139,2.7,2.7,0,0,1,1.87.519,1.533,1.533,0,0,1,.505,1.185,1.654,1.654,0,0,1-1.212,1.582v.027a1.6,1.6,0,0,1,.946,1.258,10.72,10.72,0,0,0,.486,1.709h-.859a7.3,7.3,0,0,1-.427-1.489c-.193-.859-.544-1.182-1.3-1.209h-.783v2.7h-.815Zm.815,2.832h.851c.886,0,1.448-.473,1.448-1.185,0-.815-.6-1.155-1.478-1.155a3.551,3.551,0,0,0-.815.073Z" transform="translate(-477.97 -125.384)"/>
  <path id="Path_58" data-name="Path 58" class="cls-1" d="M680.259,175.653h-2.494V177.9h2.788v.674H676.93V172.34h3.481v.677h-2.647v1.97h2.492Z" transform="translate(-492.979 -125.508)"/>
  <path id="Path_59" data-name="Path 59" class="cls-2" d="M9.9,126.82H.04l25.71,29.432v-11.4Z" transform="translate(-0.029 -92.358)"/>
  <path id="Path_60" data-name="Path 60" class="cls-2" d="M138.966,29.4h9.772L123,.01l-.014,11.34Z" transform="translate(-89.568 -0.007)"/>
  <path id="Path_61" data-name="Path 61" class="cls-3" d="M26.114,33.941a5.978,5.978,0,0,1-2.016.522H0V28.99a1.136,1.136,0,0,1,.454-.929,1.81,1.81,0,0,1,.921-.451H25.72V1.459A2.351,2.351,0,0,1,26.41.4,1.685,1.685,0,0,1,27.416,0h6.008V25.481a5.163,5.163,0,0,1-.158,1.511,3.647,3.647,0,0,1-.78,1.163l-4.769,4.565a6.709,6.709,0,0,1-1.6,1.22" transform="translate(0.001)"/>
  <path id="Path_62" data-name="Path 62" class="cls-3" d="M102.385,108.44a5.557,5.557,0,0,1,1.889-.272H128.1l.016,5.416a1.283,1.283,0,0,1-.5.924,2.4,2.4,0,0,1-.924.514H102.352l.016,26.038a1.9,1.9,0,0,1-.587,1.166,1.85,1.85,0,0,1-1.005.44H94.648v-25.6a5.776,5.776,0,0,1,.185-1.535,3.674,3.674,0,0,1,.783-1.158L101.1,109.3a4.785,4.785,0,0,1,1.253-.842Z" transform="translate(-68.928 -78.774)"/>
</svg>
